<svg width="617" height="401" viewBox="0 0 617 401" fill="none" xmlns="http://www.w3.org/2000/svg">
<g id="hero">
<g id="ring-4">
<path id="Polygon 6" d="M427.605 161.575L514.699 122.355L601.794 161.575V239.425L514.699 278.645L427.605 239.425V161.575Z" fill="#00EDFF" fill-opacity="0.5" stroke="#00EDFF" stroke-width="3"/>
<g id="microscope">
<path id="Vector 33" d="M502.961 220.118V217.99H540.934C542.918 217.99 546.602 217.99 546.602 220.118H502.961Z" fill="#484848"/>
<path id="Vector 34" d="M502.961 219.871V222.38H543.485C544.524 222.38 546.602 221.878 546.602 219.871H502.961Z" fill="black"/>
<path id="Vector 28" d="M508.12 187.691V181.691C504.15 181.078 494.161 180.665 485.963 184.691C484.162 185.143 478.761 189.337 478.761 196.596C479.223 199.499 481.31 206.604 485.963 211.791C486.378 212.501 488.649 214.985 494.41 219.244L501.888 213.921C499.811 212.824 495.31 209.856 491.64 204.726C489.886 202.274 487.403 195.822 490.394 191.563C492.471 188.175 496.598 187.691 508.12 187.691Z" fill="#F6F6F2"/>
<path id="Vector 25" d="M518.83 232.414V228.338H530.732V232.414H518.83Z" fill="black"/>
<path id="Vector 16" d="M528.352 170.013H512.483V196.353H528.352V170.013Z" fill="#F6F6F2"/>
<path id="Vector 14" d="M525.575 159.035H515.657V162.693V170.01H525.575V159.035Z" fill="#333333"/>
<path id="Vector 17" d="M525.575 158.724H515.657V160.919H525.575V158.724Z" fill="#F6F6F2"/>
<path id="Vector 21" d="M547.801 233.702C551.104 233.456 557.711 234.459 557.711 240.438H555.368V241.822H541.314V240.438H490.323V241.822H476.81V240.438H473.206C473.206 235.049 479.332 233.702 482.395 233.702H547.801Z" fill="#333333"/>
<path id="Vector 30" d="M555.727 240.253H541.048V241.821H555.727V241.037V240.253Z" fill="black"/>
<path id="Vector 31" d="M490.266 240.253H475.586V241.821H490.266V241.037V240.253Z" fill="black"/>
<path id="Vector 23" d="M516.847 231.16V230.219H531.923V231.16H516.847Z" fill="#333333"/>
<path id="Vector 24" d="M516.847 233.668V232.414H531.923V233.668H516.847Z" fill="#333333"/>
<path id="Vector 26" d="M533.51 228.651H515.657C515.657 227.342 515.657 226.143 517.516 226.143H524.769H531.65C533.51 226.143 533.51 227.342 533.51 228.651Z" fill="#333333"/>
<path id="Vector 27" d="M502.392 238.438L481.357 233.943L487.768 219.923C490.248 212.615 498.014 211.312 500.767 211.9C503.521 212.489 508.56 216.434 506.05 223.831L502.392 238.438Z" fill="#333333"/>
<ellipse id="Ellipse 14" rx="5.23388" ry="3.45485" transform="matrix(1 0 0.0563854 0.998409 497.509 217.676)" fill="#484848"/>
<ellipse id="Ellipse 15" rx="3.22626" ry="2.0415" transform="matrix(1 0 0.0563854 0.998409 497.566 217.519)" fill="#333333"/>
<path id="Vector 29" d="M556.917 237.432L473.999 237.275C474.571 236.073 477.256 233.669 483.427 233.669H549.632C551.489 233.773 555.546 234.672 556.917 237.432Z" fill="#484848"/>
<path id="Vector 18" d="M513.222 197.623L530.282 191.867L531.911 195.454L530.783 195.834L535.686 201.98L531.875 204.329L524.72 197.88L522.464 198.641L521.159 207.945L516.511 208.449L516.12 200.782L514.851 201.21L513.222 197.623Z" fill="#333333"/>
<g id="Ellipse 13">
<path d="M517.641 184.437C517.641 186.861 515.065 188.827 511.888 188.827C508.711 188.827 506.135 186.861 506.135 184.437C506.135 182.012 508.711 180.047 511.888 180.047C515.065 180.047 517.641 182.012 517.641 184.437Z" fill="#333333"/>
<path d="M517.641 184.437C517.641 186.861 515.065 188.827 511.888 188.827C508.711 188.827 506.135 186.861 506.135 184.437C506.135 182.012 508.711 180.047 511.888 180.047C515.065 180.047 517.641 182.012 517.641 184.437Z" fill="#333333"/>
</g>
<path id="Vector 19" d="M531.543 194.33L514.338 200.134L514.883 201.335L532.088 195.531L531.543 194.33Z" fill="#F6F6F2"/>
</g>
<path id="Vector 38" d="M437.1 165.848V235.664" stroke="#00EDFF" stroke-width="3"/>
<path id="Vector 46" d="M591.083 166.084V235.9" stroke="#00EDFF" stroke-width="3"/>
</g>
<g id="ring-5">
<path id="Polygon 8" d="M338.342 40.8645L425.437 1.64507L512.531 40.8645V118.715L425.437 157.935L338.342 118.715V40.8645Z" fill="#00EDFF" fill-opacity="0.5" stroke="#00EDFF" stroke-width="3"/>
<path id="Vector 47" d="M502.252 45.3735V115.19" stroke="#00EDFF" stroke-width="3"/>
<path id="Vector 43" d="M426.144 10.6292L349.936 44.7511" stroke="#00EDFF" stroke-width="3"/>
</g>
<g id="ring-2">
<path id="Polygon 9" d="M71.2586 161.679L158.353 122.46L245.448 161.679V239.53L158.353 278.749L71.2586 239.53V161.679Z" fill="#00EDFF" fill-opacity="0.5" stroke="#00EDFF" stroke-width="3"/>
<path id="Vector 46_2" d="M159.013 130.478L82.8714 164.694" stroke="#00EDFF" stroke-width="3"/>
<path id="Vector 47_2" d="M80.636 235.174L158.476 270.132" stroke="#00EDFF" stroke-width="3"/>
</g>
<g id="ring-1">
<path id="Polygon 4" d="M338.342 282.285L425.437 243.065L512.531 282.285V360.136L425.437 399.355L338.342 360.136V282.285Z" fill="#00EDFF" fill-opacity="0.5" stroke="#00EDFF" stroke-width="3"/>
<g id="Group">
<g id="flask">
<path id="Vector" opacity="0.9" d="M427.272 291.569V272.535H430.777V266.853H405.661V272.535H409.166V291.569C404.325 292.928 400.158 295.344 397.217 298.495C394.276 301.646 392.701 305.384 392.699 309.213C392.699 319.635 404.126 328.083 418.221 328.083C432.316 328.083 443.742 319.635 443.742 309.213C443.741 305.384 442.165 301.646 439.223 298.494C436.281 295.343 432.113 292.928 427.272 291.569Z" fill="#92B8F0"/>
<path id="Vector_2" opacity="0.1" d="M427.315 272.374H409.127V272.876H427.315V272.374Z" fill="black"/>
<path id="Vector_3" d="M403.846 308.604C403.846 308.604 419.289 308.403 427.01 305.534C434.731 302.666 439.143 305.227 438.728 306.967C438.314 308.707 436.11 312.082 427.286 312.497C418.462 312.911 403.846 308.604 403.846 308.604Z" fill="#6C63FF"/>
<path id="Vector_4" opacity="0.1" d="M403.846 308.604C403.846 308.604 419.289 308.403 427.01 305.534C434.731 302.666 439.143 305.227 438.728 306.967C438.314 308.707 436.11 312.082 427.286 312.497C418.462 312.911 403.846 308.604 403.846 308.604Z" fill="black"/>
<path id="Vector_5" d="M397.422 306.872C397.422 306.872 395.778 323.759 417.333 324.064C438.887 324.369 438.755 307.072 438.755 307.072C438.755 307.072 430.795 313.48 411.978 308.191C411.978 308.195 402.228 306.262 397.422 306.872Z" fill="#6C63FF"/>
<path id="Vector_6" opacity="0.1" d="M438.681 307.066C438.251 310.972 435.459 323.198 417.338 322.94C399.574 322.69 397.562 311.139 397.405 307.076C397.306 309.257 397.394 323.78 417.334 324.064C438.893 324.365 438.755 307.004 438.755 307.004C438.755 307.004 438.728 307.029 438.681 307.066Z" fill="black"/>
<path id="Vector_7" opacity="0.3" d="M417.487 301.734C419.026 301.734 420.274 300.779 420.274 299.601C420.274 298.423 419.026 297.468 417.487 297.468C415.948 297.468 414.7 298.423 414.7 299.601C414.7 300.779 415.948 301.734 417.487 301.734Z" fill="#6C63FF"/>
<path id="Vector_8" opacity="0.3" d="M419.101 292.7C420.073 292.7 420.861 292.138 420.861 291.445C420.861 290.752 420.073 290.191 419.101 290.191C418.129 290.191 417.341 290.752 417.341 291.445C417.341 292.138 418.129 292.7 419.101 292.7Z" fill="#6C63FF"/>
<path id="Vector_9" opacity="0.3" d="M415.141 285.172C416.032 285.172 416.754 284.61 416.754 283.917C416.754 283.224 416.032 282.663 415.141 282.663C414.25 282.663 413.527 283.224 413.527 283.917C413.527 284.61 414.25 285.172 415.141 285.172Z" fill="#6C63FF"/>
<path id="Vector_10" opacity="0.3" d="M413.674 263.089C415.213 263.089 416.461 262.134 416.461 260.956C416.461 259.778 415.213 258.823 413.674 258.823C412.135 258.823 410.887 259.778 410.887 260.956C410.887 262.134 412.135 263.089 413.674 263.089Z" fill="#6C63FF"/>
<path id="Vector_11" opacity="0.3" d="M422.182 259.074C423.397 259.074 424.382 258.4 424.382 257.569C424.382 256.737 423.397 256.063 422.182 256.063C420.967 256.063 419.982 256.737 419.982 257.569C419.982 258.4 420.967 259.074 422.182 259.074Z" fill="#6C63FF"/>
<path id="Vector_12" opacity="0.3" d="M416.167 254.056C416.815 254.056 417.341 253.719 417.341 253.303C417.341 252.887 416.815 252.55 416.167 252.55C415.519 252.55 414.994 252.887 414.994 253.303C414.994 253.719 415.519 254.056 416.167 254.056Z" fill="#6C63FF"/>
</g>
<g id="clamp">
<path id="Vector 8" d="M470.6 286.052V283.873H423.877C422.425 283.873 422.425 286.052 423.877 286.052H470.6Z" fill="#161757"/>
<path id="Vector 7" d="M458.556 268.804V357.579H460.745V268.804C460.745 267.595 458.556 267.595 458.556 268.804Z" fill="#161757"/>
<rect id="Rectangle 4" x="454.541" y="279.879" width="10.2192" height="9.80327" rx="2" fill="#F6F6F2"/>
<rect id="Rectangle 5" x="420.128" y="279.88" width="7.91708" height="9.91136" rx="2" fill="#F6F6F2"/>
<rect id="Rectangle 6" x="408.252" y="279.88" width="4.94817" height="9.91136" rx="2" fill="#F6F6F2"/>
<path id="Vector 6" d="M393.239 357.579H448.888H468.775V363.025H452.537H384.846C384.664 361.21 386.087 357.579 393.239 357.579Z" fill="#F6F6F2"/>
<ellipse id="Ellipse 12" cx="459.468" cy="284.962" rx="2.73729" ry="2.54159" fill="#161757"/>
<path id="Vector 11" d="M415.545 352.466V347.135L415.545 347.135C416.786 346.525 417.407 346.221 419.269 347.135V352.466H415.545Z" fill="#161757"/>
<path id="Vector 9" d="M423.259 351.123H411.822V354.077H423.259V351.123Z" fill="#BCBCBC"/>
<path id="Vector 10" d="M433.1 359.717H401.98C401.98 354.785 415.739 352.466 418.191 352.466C420.642 352.466 433.1 354.969 433.1 359.717Z" fill="#BCBCBC"/>
</g>
<g id="flame">
<path id="Vector 12" d="M413.313 337.706C412.947 337.341 417.148 332.786 417.148 332.786C420.654 336.43 420.878 337.524 420.817 337.706C421.255 342.079 418.974 342.626 417.148 342.991C415.504 342.687 412.436 341.351 413.313 337.706Z" fill="#FE5353"/>
<path id="Vector 13" d="M413.916 340.03C413.603 339.836 417.076 337.212 417.076 337.212C420.083 339.158 420.288 339.76 420.239 339.863C420.672 342.282 418.758 342.637 417.225 342.88C415.835 342.748 413.231 342.074 413.916 340.03Z" fill="#FD891F"/>
</g>
</g>
<path id="Vector 48" d="M503.273 285.938V355.754" stroke="#00EDFF" stroke-width="3"/>
<path id="Vector 48_2" d="M348.818 356.024L426.667 390.969" stroke="#00EDFF" stroke-width="3"/>
</g>
<g id="ring-3">
<g id="Polygon 7" filter="url(#filter0_d)">
<path d="M336.016 120.71L424.611 160.605V240.395L336.016 280.29L247.421 240.395V160.605L336.016 120.71Z" fill="#00EDFF" fill-opacity="0.5"/>
<path d="M248.921 161.575L336.016 122.355L423.111 161.575V239.425L336.016 278.645L248.921 239.425V161.575Z" stroke="#00EDFF" stroke-width="3"/>
</g>
<path id="Vector 39" d="M336.193 130.683L260.542 165.591" stroke="#00EDFF" stroke-width="3"/>
<path id="Vector 40" d="M258.307 235.863L336.001 271.028" stroke="#00EDFF" stroke-width="3"/>
<g id="laptop">
<rect id="Rectangle 1" x="286.514" y="165.232" width="105.221" height="65.518" rx="5" fill="#4D4D4E"/>
<path id="Vector 4" d="M293.219 168.02C291.562 168.02 290.219 169.363 290.219 171.02V222.871C290.219 224.527 291.562 225.871 293.219 225.871H385.771C387.428 225.871 388.771 224.527 388.771 222.871V171.02C388.771 169.363 387.428 168.02 385.771 168.02H293.219Z" fill="#56E8B3"/>
<path id="Vector 5" d="M403.898 228.577H275.845C275.845 230.559 276.502 234.522 283.233 234.522H394.868C401.025 234.522 403.898 232.841 403.898 228.577Z" fill="#333333"/>
<path id="Vector 6_2" d="M347.956 228.577H331.769C331.769 229.307 331.852 230.767 332.703 230.767H346.814C347.593 230.767 347.956 230.148 347.956 228.577Z" fill="#818181"/>
<path id="Vector_13" opacity="0.1" d="M368.836 225.788H290.327V168.143L368.836 225.788Z" fill="black"/>
<path id="Vector_14" d="M305.622 223.058C311.377 223.058 316.042 218.703 316.042 213.331C316.042 207.958 311.377 203.603 305.622 203.603C299.868 203.603 295.203 207.958 295.203 213.331C295.203 218.703 299.868 223.058 305.622 223.058Z" fill="#F2F2F2"/>
<path id="Vector_15" d="M307.887 220.393C305.318 220.393 302.807 219.698 300.672 218.395C298.536 217.091 296.872 215.239 295.889 213.072C294.906 210.905 294.649 208.521 295.15 206.22C295.651 203.92 296.888 201.807 298.704 200.148C300.52 198.489 302.834 197.36 305.353 196.902C307.872 196.445 310.483 196.68 312.856 197.577C315.229 198.475 317.258 199.995 318.684 201.945C320.111 203.895 320.873 206.188 320.873 208.534C320.869 211.678 319.5 214.692 317.065 216.916C314.631 219.139 311.33 220.39 307.887 220.393ZM307.887 196.829C305.352 196.829 302.874 197.516 300.766 198.802C298.658 200.088 297.016 201.916 296.046 204.055C295.075 206.193 294.822 208.547 295.316 210.817C295.811 213.088 297.031 215.173 298.824 216.81C300.616 218.447 302.9 219.562 305.386 220.013C307.872 220.465 310.449 220.233 312.791 219.347C315.133 218.461 317.135 216.961 318.543 215.036C319.952 213.112 320.703 210.849 320.703 208.534C320.699 205.431 319.348 202.456 316.945 200.261C314.542 198.067 311.285 196.833 307.887 196.829Z" fill="#3F3D56"/>
<path id="Vector_16" d="M367.555 195.877H357.287V198.009H367.555V195.877Z" fill="#3F3D56"/>
<path id="Vector_17" d="M379.636 180.953H345.207V181.486H379.636V180.953Z" fill="#3F3D56"/>
<path id="Vector_18" d="M379.636 183.618H345.207V184.417H379.636V183.618Z" fill="#3F3D56"/>
<path id="Vector_19" d="M379.636 186.016H345.207V187.082H379.636V186.016Z" fill="#3F3D56"/>
<path id="Vector_20" d="M379.636 188.948H345.207V189.481H379.636V188.948Z" fill="#3F3D56"/>
<path id="Vector_21" d="M379.636 191.613H345.207V192.146H379.636V191.613Z" fill="#3F3D56"/>
<path id="Vector_22" d="M383.735 170.472H379.506V174.469H383.735V170.472Z" fill="#F2F2F2"/>
<path id="Vector_23" d="M385.849 176.335H380.715V171.538H385.849V176.335ZM380.938 176.126H385.626V171.747H380.938V176.126Z" fill="#3F3D56"/>
</g>
</g>
<g id="molecule-2">
<g id="Rectangle 5_2" filter="url(#filter1_i)">
<path d="M27.9668 97.0322L33.5791 100.576L18.1876 117.176L12.5753 113.632L27.9668 97.0322Z" fill="#C4C4C4"/>
</g>
<g id="Rectangle 7" filter="url(#filter2_i)">
<rect width="6.75833" height="22.5298" transform="matrix(-0.676711 0.736249 -0.878509 -0.477725 69.0862 107.342)" fill="#C4C4C4"/>
</g>
<g id="Ellipse 24" filter="url(#filter3_i)">
<ellipse rx="12.13" ry="9.13131" transform="matrix(0.975685 -0.219176 0.330431 0.94383 70.855 110.57)" fill="#F7F7F7"/>
</g>
<g id="Rectangle 8" filter="url(#filter4_i)">
<rect width="6.75833" height="22.5298" transform="matrix(-0.676711 0.736249 -0.878509 -0.477725 69.0862 107.342)" fill="#C4C4C4"/>
</g>
<g id="Ellipse 28" filter="url(#filter5_i)">
<ellipse rx="12.13" ry="9.13131" transform="matrix(0.975685 -0.219176 0.330431 0.94383 70.855 110.57)" fill="#F7F7F7"/>
</g>
<g id="Ellipse 27" filter="url(#filter6_i)">
<ellipse rx="12.2356" ry="9.01345" transform="matrix(0.991636 -0.129063 0.195468 0.98071 13.8951 119.895)" fill="#F7F7F7"/>
</g>
<g id="Ellipse 25" filter="url(#filter7_i)">
<ellipse rx="16.1775" ry="12.3071" transform="matrix(0.99178 -0.127955 0.197123 0.980379 37.4671 94.1356)" fill="#F7F7F7"/>
</g>
</g>
<g id="molecule-1">
<g id="Rectangle 10" filter="url(#filter8_i)">
<path d="M158.04 322.105L153.242 317.862L171.866 303.545L176.664 307.788L158.04 322.105Z" fill="#C4C4C4"/>
</g>
<g id="Rectangle 12" filter="url(#filter9_i)">
<rect width="6.95107" height="21.9681" transform="matrix(-0.765183 0.643813 -0.816832 -0.576875 178.174 346.515)" fill="#C4C4C4"/>
</g>
<g id="Ellipse 36" filter="url(#filter10_i)">
<ellipse rx="8.25489" ry="11.0427" transform="matrix(0.313353 0.949637 -0.978313 0.207134 180.068 348.47)" fill="#F7F7F7"/>
</g>
<g id="Ellipse 37" filter="url(#filter11_i)">
<ellipse rx="8.91545" ry="11.1329" transform="matrix(0.181055 0.983473 -0.993417 0.114555 178.082 304.825)" fill="#F7F7F7"/>
</g>
<g id="Ellipse 38" filter="url(#filter12_i)">
<ellipse rx="13.0931" ry="15.1998" transform="matrix(0.178957 0.983857 -0.993258 0.115924 150.832 327.042)" fill="#F7F7F7"/>
</g>
</g>
<g id="molecule-3">
<g id="Rectangle 9" filter="url(#filter13_i)">
<rect width="6.53359" height="26.345" transform="matrix(0.455741 0.890113 -0.96237 0.271741 255.725 85.0334)" fill="#C4C4C4"/>
</g>
<g id="Ellipse 33" filter="url(#filter14_i)">
<ellipse rx="12.7204" ry="9.85838" transform="matrix(0.991636 -0.129063 0.195468 0.98071 225.916 96.3153)" fill="#F7F7F7"/>
</g>
<g id="Ellipse 34" filter="url(#filter15_i)">
<ellipse rx="12.7207" ry="9.85884" transform="matrix(0.99178 -0.127955 0.197123 0.980379 261.692 86.4804)" fill="#F7F7F7"/>
</g>
</g>
</g>
<defs>
<filter id="filter0_d" x="243.421" y="120.71" width="185.19" height="167.58" filterUnits="userSpaceOnUse" color-interpolation-filters="sRGB">
<feFlood flood-opacity="0" result="BackgroundImageFix"/>
<feColorMatrix in="SourceAlpha" type="matrix" values="0 0 0 0 0 0 0 0 0 0 0 0 0 0 0 0 0 0 127 0"/>
<feOffset dy="4"/>
<feGaussianBlur stdDeviation="2"/>
<feColorMatrix type="matrix" values="0 0 0 0 0 0 0 0 0 0 0 0 0 0 0 0 0 0 0.25 0"/>
<feBlend mode="normal" in2="BackgroundImageFix" result="effect1_dropShadow"/>
<feBlend mode="normal" in="SourceGraphic" in2="effect1_dropShadow" result="shape"/>
</filter>
<filter id="filter1_i" x="3.98856" y="97.0322" width="29.5904" height="22.7194" filterUnits="userSpaceOnUse" color-interpolation-filters="sRGB">
<feFlood flood-opacity="0" result="BackgroundImageFix"/>
<feBlend mode="normal" in="SourceGraphic" in2="BackgroundImageFix" result="shape"/>
<feColorMatrix in="SourceAlpha" type="matrix" values="0 0 0 0 0 0 0 0 0 0 0 0 0 0 0 0 0 0 127 0" result="hardAlpha"/>
<feOffset dx="-8.58663" dy="2.57599"/>
<feGaussianBlur stdDeviation="4.29332"/>
<feComposite in2="hardAlpha" operator="arithmetic" k2="-1" k3="1"/>
<feColorMatrix type="matrix" values="0 0 0 0 0 0 0 0 0 0 0 0 0 0 0 0 0 0 0.25 0"/>
<feBlend mode="normal" in2="shape" result="effect1_innerShadow"/>
</filter>
<filter id="filter2_i" x="36.1336" y="96.5785" width="32.9527" height="18.3149" filterUnits="userSpaceOnUse" color-interpolation-filters="sRGB">
<feFlood flood-opacity="0" result="BackgroundImageFix"/>
<feBlend mode="normal" in="SourceGraphic" in2="BackgroundImageFix" result="shape"/>
<feColorMatrix in="SourceAlpha" type="matrix" values="0 0 0 0 0 0 0 0 0 0 0 0 0 0 0 0 0 0 127 0" result="hardAlpha"/>
<feOffset dx="-8.58663" dy="2.57599"/>
<feGaussianBlur stdDeviation="4.29332"/>
<feComposite in2="hardAlpha" operator="arithmetic" k2="-1" k3="1"/>
<feColorMatrix type="matrix" values="0 0 0 0 0 0 0 0 0 0 0 0 0 0 0 0 0 0 0.25 0"/>
<feBlend mode="normal" in2="shape" result="effect1_innerShadow"/>
</filter>
<filter id="filter3_i" x="50.0518" y="101.548" width="33.0198" height="20.6191" filterUnits="userSpaceOnUse" color-interpolation-filters="sRGB">
<feFlood flood-opacity="0" result="BackgroundImageFix"/>
<feBlend mode="normal" in="SourceGraphic" in2="BackgroundImageFix" result="shape"/>
<feColorMatrix in="SourceAlpha" type="matrix" values="0 0 0 0 0 0 0 0 0 0 0 0 0 0 0 0 0 0 127 0" result="hardAlpha"/>
<feOffset dx="-8.58663" dy="2.57599"/>
<feGaussianBlur stdDeviation="4.29332"/>
<feComposite in2="hardAlpha" operator="arithmetic" k2="-1" k3="1"/>
<feColorMatrix type="matrix" values="0 0 0 0 0 0 0 0 0 0 0 0 0 0 0 0 0 0 0.25 0"/>
<feBlend mode="normal" in2="shape" result="effect1_innerShadow"/>
</filter>
<filter id="filter4_i" x="36.1336" y="96.5785" width="32.9527" height="18.3149" filterUnits="userSpaceOnUse" color-interpolation-filters="sRGB">
<feFlood flood-opacity="0" result="BackgroundImageFix"/>
<feBlend mode="normal" in="SourceGraphic" in2="BackgroundImageFix" result="shape"/>
<feColorMatrix in="SourceAlpha" type="matrix" values="0 0 0 0 0 0 0 0 0 0 0 0 0 0 0 0 0 0 127 0" result="hardAlpha"/>
<feOffset dx="-8.58663" dy="2.57599"/>
<feGaussianBlur stdDeviation="4.29332"/>
<feComposite in2="hardAlpha" operator="arithmetic" k2="-1" k3="1"/>
<feColorMatrix type="matrix" values="0 0 0 0 0 0 0 0 0 0 0 0 0 0 0 0 0 0 0.25 0"/>
<feBlend mode="normal" in2="shape" result="effect1_innerShadow"/>
</filter>
<filter id="filter5_i" x="50.0518" y="101.548" width="33.0198" height="20.6191" filterUnits="userSpaceOnUse" color-interpolation-filters="sRGB">
<feFlood flood-opacity="0" result="BackgroundImageFix"/>
<feBlend mode="normal" in="SourceGraphic" in2="BackgroundImageFix" result="shape"/>
<feColorMatrix in="SourceAlpha" type="matrix" values="0 0 0 0 0 0 0 0 0 0 0 0 0 0 0 0 0 0 127 0" result="hardAlpha"/>
<feOffset dx="-8.58663" dy="2.57599"/>
<feGaussianBlur stdDeviation="4.29332"/>
<feComposite in2="hardAlpha" operator="arithmetic" k2="-1" k3="1"/>
<feColorMatrix type="matrix" values="0 0 0 0 0 0 0 0 0 0 0 0 0 0 0 0 0 0 0.25 0"/>
<feBlend mode="normal" in2="shape" result="effect1_innerShadow"/>
</filter>
<filter id="filter6_i" x="-6.95358" y="110.914" width="33.1108" height="20.5381" filterUnits="userSpaceOnUse" color-interpolation-filters="sRGB">
<feFlood flood-opacity="0" result="BackgroundImageFix"/>
<feBlend mode="normal" in="SourceGraphic" in2="BackgroundImageFix" result="shape"/>
<feColorMatrix in="SourceAlpha" type="matrix" values="0 0 0 0 0 0 0 0 0 0 0 0 0 0 0 0 0 0 127 0" result="hardAlpha"/>
<feOffset dx="-8.58663" dy="2.57599"/>
<feGaussianBlur stdDeviation="4.29332"/>
<feComposite in2="hardAlpha" operator="arithmetic" k2="-1" k3="1"/>
<feColorMatrix type="matrix" values="0 0 0 0 0 0 0 0 0 0 0 0 0 0 0 0 0 0 0.25 0"/>
<feBlend mode="normal" in2="shape" result="effect1_innerShadow"/>
</filter>
<filter id="filter7_i" x="12.6514" y="81.8917" width="41.0449" height="27.0637" filterUnits="userSpaceOnUse" color-interpolation-filters="sRGB">
<feFlood flood-opacity="0" result="BackgroundImageFix"/>
<feBlend mode="normal" in="SourceGraphic" in2="BackgroundImageFix" result="shape"/>
<feColorMatrix in="SourceAlpha" type="matrix" values="0 0 0 0 0 0 0 0 0 0 0 0 0 0 0 0 0 0 127 0" result="hardAlpha"/>
<feOffset dx="-8.58663" dy="2.57599"/>
<feGaussianBlur stdDeviation="4.29332"/>
<feComposite in2="hardAlpha" operator="arithmetic" k2="-1" k3="1"/>
<feColorMatrix type="matrix" values="0 0 0 0 0 0 0 0 0 0 0 0 0 0 0 0 0 0 0.25 0"/>
<feBlend mode="normal" in2="shape" result="effect1_innerShadow"/>
</filter>
<filter id="filter8_i" x="144.656" y="303.545" width="32.0089" height="21.1357" filterUnits="userSpaceOnUse" color-interpolation-filters="sRGB">
<feFlood flood-opacity="0" result="BackgroundImageFix"/>
<feBlend mode="normal" in="SourceGraphic" in2="BackgroundImageFix" result="shape"/>
<feColorMatrix in="SourceAlpha" type="matrix" values="0 0 0 0 0 0 0 0 0 0 0 0 0 0 0 0 0 0 127 0" result="hardAlpha"/>
<feOffset dx="-8.58663" dy="2.57599"/>
<feGaussianBlur stdDeviation="4.29332"/>
<feComposite in2="hardAlpha" operator="arithmetic" k2="-1" k3="1"/>
<feColorMatrix type="matrix" values="0 0 0 0 0 0 0 0 0 0 0 0 0 0 0 0 0 0 0.25 0"/>
<feBlend mode="normal" in2="shape" result="effect1_innerShadow"/>
</filter>
<filter id="filter9_i" x="146.324" y="333.842" width="31.8497" height="19.724" filterUnits="userSpaceOnUse" color-interpolation-filters="sRGB">
<feFlood flood-opacity="0" result="BackgroundImageFix"/>
<feBlend mode="normal" in="SourceGraphic" in2="BackgroundImageFix" result="shape"/>
<feColorMatrix in="SourceAlpha" type="matrix" values="0 0 0 0 0 0 0 0 0 0 0 0 0 0 0 0 0 0 127 0" result="hardAlpha"/>
<feOffset dx="-8.58663" dy="2.57599"/>
<feGaussianBlur stdDeviation="4.29332"/>
<feComposite in2="hardAlpha" operator="arithmetic" k2="-1" k3="1"/>
<feColorMatrix type="matrix" values="0 0 0 0 0 0 0 0 0 0 0 0 0 0 0 0 0 0 0.25 0"/>
<feBlend mode="normal" in2="shape" result="effect1_innerShadow"/>
</filter>
<filter id="filter10_i" x="160.37" y="340.302" width="30.8089" height="18.9123" filterUnits="userSpaceOnUse" color-interpolation-filters="sRGB">
<feFlood flood-opacity="0" result="BackgroundImageFix"/>
<feBlend mode="normal" in="SourceGraphic" in2="BackgroundImageFix" result="shape"/>
<feColorMatrix in="SourceAlpha" type="matrix" values="0 0 0 0 0 0 0 0 0 0 0 0 0 0 0 0 0 0 127 0" result="hardAlpha"/>
<feOffset dx="-8.58663" dy="2.57599"/>
<feGaussianBlur stdDeviation="4.29332"/>
<feComposite in2="hardAlpha" operator="arithmetic" k2="-1" k3="1"/>
<feColorMatrix type="matrix" values="0 0 0 0 0 0 0 0 0 0 0 0 0 0 0 0 0 0 0.25 0"/>
<feBlend mode="normal" in2="shape" result="effect1_innerShadow"/>
</filter>
<filter id="filter11_i" x="158.317" y="295.963" width="30.9431" height="20.299" filterUnits="userSpaceOnUse" color-interpolation-filters="sRGB">
<feFlood flood-opacity="0" result="BackgroundImageFix"/>
<feBlend mode="normal" in="SourceGraphic" in2="BackgroundImageFix" result="shape"/>
<feColorMatrix in="SourceAlpha" type="matrix" values="0 0 0 0 0 0 0 0 0 0 0 0 0 0 0 0 0 0 127 0" result="hardAlpha"/>
<feOffset dx="-8.58663" dy="2.57599"/>
<feGaussianBlur stdDeviation="4.29332"/>
<feComposite in2="hardAlpha" operator="arithmetic" k2="-1" k3="1"/>
<feColorMatrix type="matrix" values="0 0 0 0 0 0 0 0 0 0 0 0 0 0 0 0 0 0 0.25 0"/>
<feBlend mode="normal" in2="shape" result="effect1_innerShadow"/>
</filter>
<filter id="filter12_i" x="126.965" y="314.038" width="39.1472" height="28.5825" filterUnits="userSpaceOnUse" color-interpolation-filters="sRGB">
<feFlood flood-opacity="0" result="BackgroundImageFix"/>
<feBlend mode="normal" in="SourceGraphic" in2="BackgroundImageFix" result="shape"/>
<feColorMatrix in="SourceAlpha" type="matrix" values="0 0 0 0 0 0 0 0 0 0 0 0 0 0 0 0 0 0 127 0" result="hardAlpha"/>
<feOffset dx="-8.58663" dy="2.57599"/>
<feGaussianBlur stdDeviation="4.29332"/>
<feComposite in2="hardAlpha" operator="arithmetic" k2="-1" k3="1"/>
<feColorMatrix type="matrix" values="0 0 0 0 0 0 0 0 0 0 0 0 0 0 0 0 0 0 0.25 0"/>
<feBlend mode="normal" in2="shape" result="effect1_innerShadow"/>
</filter>
<filter id="filter13_i" x="221.785" y="85.0334" width="36.9179" height="15.5506" filterUnits="userSpaceOnUse" color-interpolation-filters="sRGB">
<feFlood flood-opacity="0" result="BackgroundImageFix"/>
<feBlend mode="normal" in="SourceGraphic" in2="BackgroundImageFix" result="shape"/>
<feColorMatrix in="SourceAlpha" type="matrix" values="0 0 0 0 0 0 0 0 0 0 0 0 0 0 0 0 0 0 127 0" result="hardAlpha"/>
<feOffset dx="-8.58663" dy="2.57599"/>
<feGaussianBlur stdDeviation="4.29332"/>
<feComposite in2="hardAlpha" operator="arithmetic" k2="-1" k3="1"/>
<feColorMatrix type="matrix" values="0 0 0 0 0 0 0 0 0 0 0 0 0 0 0 0 0 0 0.25 0"/>
<feBlend mode="normal" in2="shape" result="effect1_innerShadow"/>
</filter>
<filter id="filter14_i" x="204.567" y="86.5071" width="34.1108" height="22.1923" filterUnits="userSpaceOnUse" color-interpolation-filters="sRGB">
<feFlood flood-opacity="0" result="BackgroundImageFix"/>
<feBlend mode="normal" in="SourceGraphic" in2="BackgroundImageFix" result="shape"/>
<feColorMatrix in="SourceAlpha" type="matrix" values="0 0 0 0 0 0 0 0 0 0 0 0 0 0 0 0 0 0 127 0" result="hardAlpha"/>
<feOffset dx="-8.58663" dy="2.57599"/>
<feGaussianBlur stdDeviation="4.29332"/>
<feComposite in2="hardAlpha" operator="arithmetic" k2="-1" k3="1"/>
<feColorMatrix type="matrix" values="0 0 0 0 0 0 0 0 0 0 0 0 0 0 0 0 0 0 0.25 0"/>
<feBlend mode="normal" in2="shape" result="effect1_innerShadow"/>
</filter>
<filter id="filter15_i" x="240.339" y="76.6774" width="34.1201" height="22.1821" filterUnits="userSpaceOnUse" color-interpolation-filters="sRGB">
<feFlood flood-opacity="0" result="BackgroundImageFix"/>
<feBlend mode="normal" in="SourceGraphic" in2="BackgroundImageFix" result="shape"/>
<feColorMatrix in="SourceAlpha" type="matrix" values="0 0 0 0 0 0 0 0 0 0 0 0 0 0 0 0 0 0 127 0" result="hardAlpha"/>
<feOffset dx="-8.58663" dy="2.57599"/>
<feGaussianBlur stdDeviation="4.29332"/>
<feComposite in2="hardAlpha" operator="arithmetic" k2="-1" k3="1"/>
<feColorMatrix type="matrix" values="0 0 0 0 0 0 0 0 0 0 0 0 0 0 0 0 0 0 0.25 0"/>
<feBlend mode="normal" in2="shape" result="effect1_innerShadow"/>
</filter>
</defs>
</svg>
