<svg width="531" height="403" viewBox="0 0 531 403" fill="none" xmlns="http://www.w3.org/2000/svg">
<path d="M360.694 162.331L438.93 122.991L517.165 162.331V240.669L438.93 280.009L360.694 240.669V162.331Z" fill="#B1EAB9" fill-opacity="0.5" stroke="#B1EAB9" stroke-width="3"/>
<path d="M428.365 221.216V219.077H462.541C464.326 219.077 467.642 219.077 467.642 221.216H428.365Z" fill="#484848"/>
<path d="M428.365 220.968V223.489H464.836C465.771 223.489 467.642 222.985 467.642 220.968H428.365Z" fill="black"/>
<path d="M433.008 188.627V182.597C429.435 181.981 420.445 181.566 413.066 185.612C411.446 186.066 406.585 190.281 406.585 197.576C407.001 200.494 408.878 207.634 413.066 212.848C413.44 213.561 415.484 216.058 420.669 220.338L427.399 214.988C425.53 213.885 421.479 210.902 418.176 205.747C416.598 203.283 414.362 196.798 417.055 192.518C418.924 189.114 422.638 188.627 433.008 188.627Z" fill="#F6F6F2"/>
<path d="M442.647 233.573V229.477H453.359V233.573H442.647Z" fill="black"/>
<path d="M451.217 170.86H436.935V197.332H451.217V170.86Z" fill="#F6F6F2"/>
<path d="M448.718 159.828H439.791V163.505V170.858H448.718V159.828Z" fill="#333333"/>
<path d="M448.718 159.515H439.791V161.721H448.718V159.515Z" fill="#F6F6F2"/>
<path d="M468.721 234.868C471.694 234.62 477.64 235.628 477.64 241.637H475.532V243.028H462.883V241.637H416.991V243.028H404.829V241.637H401.586C401.586 236.221 407.099 234.868 409.856 234.868H468.721Z" fill="#333333"/>
<path d="M475.854 241.452H462.643V243.027H475.854V242.24V241.452Z" fill="black"/>
<path d="M416.939 241.452H403.728V243.027H416.939V242.24V241.452Z" fill="black"/>
<path d="M440.862 232.313V231.367H454.431V232.313H440.862Z" fill="#333333"/>
<path d="M440.862 234.834V233.573H454.431V234.834H440.862Z" fill="#333333"/>
<path d="M455.859 229.792H439.791C439.791 228.476 439.791 227.271 441.465 227.271H447.993H454.185C455.859 227.271 455.859 228.476 455.859 229.792Z" fill="#333333"/>
<path d="M427.853 239.628L408.921 235.109L414.691 221.02C416.923 213.676 423.913 212.366 426.391 212.957C428.869 213.549 433.404 217.513 431.145 224.947L427.853 239.628Z" fill="#333333"/>
<ellipse rx="4.71049" ry="3.47099" transform="matrix(1 0 0.0505109 0.998723 423.458 218.762)" fill="#484848"/>
<ellipse rx="2.90363" ry="2.05104" transform="matrix(1 0 0.0505109 0.998723 423.51 218.604)" fill="#333333"/>
<path d="M476.925 238.616L402.299 238.458C402.814 237.25 405.23 234.834 410.784 234.834H470.369C472.04 234.939 475.691 235.842 476.925 238.616Z" fill="#484848"/>
<path d="M437.6 198.608L452.954 192.824L454.42 196.429L453.405 196.811L457.817 202.987L454.387 205.348L447.948 198.867L445.918 199.632L444.744 208.982L440.56 209.489L440.208 201.783L439.066 202.213L437.6 198.608Z" fill="#333333"/>
<path d="M441.577 185.357C441.577 187.793 439.259 189.769 436.399 189.769C433.54 189.769 431.222 187.793 431.222 185.357C431.222 182.92 433.54 180.945 436.399 180.945C439.259 180.945 441.577 182.92 441.577 185.357Z" fill="#333333"/>
<path d="M441.577 185.357C441.577 187.793 439.259 189.769 436.399 189.769C433.54 189.769 431.222 187.793 431.222 185.357C431.222 182.92 433.54 180.945 436.399 180.945C439.259 180.945 441.577 182.92 441.577 185.357Z" fill="#333333"/>
<path d="M454.089 195.299L438.604 201.132L439.095 202.339L454.58 196.506L454.089 195.299Z" fill="#F6F6F2"/>
<path d="M369.09 166.675V236.839" stroke="#B1EAB9" stroke-width="3"/>
<path d="M507.675 166.912V237.076" stroke="#B1EAB9" stroke-width="3"/>
<path d="M280.358 41.0186L358.593 1.67896L436.828 41.0186V119.357L358.593 158.697L280.358 119.357V41.0186Z" fill="#B1EAB9" fill-opacity="0.5" stroke="#B1EAB9" stroke-width="3"/>
<path d="M427.727 45.5997V115.764" stroke="#B1EAB9" stroke-width="3"/>
<path d="M359.229 10.6822L290.642 44.9742" stroke="#B1EAB9" stroke-width="3"/>
<path d="M39.9828 162.436L118.218 123.096L196.454 162.436V240.774L118.218 280.114L39.9828 240.774V162.436Z" fill="#B1EAB9" fill-opacity="0.5" stroke="#B1EAB9" stroke-width="3"/>
<path d="M118.812 131.128L50.2843 165.515" stroke="#B1EAB9" stroke-width="3"/>
<path d="M48.2725 236.347L118.328 271.479" stroke="#B1EAB9" stroke-width="3"/>
<path d="M280.358 283.643L358.593 244.303L436.828 283.643V361.981L358.593 401.321L280.358 361.981V283.643Z" fill="#B1EAB9" fill-opacity="0.5" stroke="#B1EAB9" stroke-width="3"/>
<path opacity="0.9" d="M360.245 293.023V273.895H363.399V268.184H340.795V273.895H343.949V293.023C339.593 294.389 335.842 296.817 333.195 299.984C330.549 303.151 329.131 306.907 329.13 310.755C329.13 321.229 339.414 329.72 352.099 329.72C364.785 329.72 375.068 321.229 375.068 310.755C375.067 306.907 373.648 303.15 371.001 299.983C368.353 296.816 364.602 294.389 360.245 293.023V293.023Z" fill="#92B8F0"/>
<path opacity="0.1" d="M360.283 273.732H343.914V274.237H360.283V273.732Z" fill="black"/>
<path d="M339.162 310.143C339.162 310.143 353.06 309.941 360.009 307.058C366.958 304.176 370.928 306.749 370.555 308.498C370.182 310.247 368.199 313.639 360.257 314.055C352.316 314.471 339.162 310.143 339.162 310.143Z" fill="#6C63FF"/>
<path opacity="0.1" d="M339.162 310.143C339.162 310.143 353.06 309.941 360.009 307.058C366.958 304.176 370.928 306.749 370.555 308.498C370.182 310.247 368.199 313.639 360.257 314.055C352.316 314.471 339.162 310.143 339.162 310.143Z" fill="black"/>
<path d="M333.38 308.403C333.38 308.403 331.901 325.374 351.3 325.68C370.699 325.987 370.58 308.604 370.58 308.604C370.58 308.604 363.415 315.044 346.48 309.728C346.48 309.732 337.705 307.789 333.38 308.403Z" fill="#6C63FF"/>
<path opacity="0.1" d="M370.513 308.598C370.126 312.523 367.613 324.81 351.304 324.551C335.317 324.3 333.506 312.691 333.364 308.608C333.275 310.799 333.354 325.395 351.3 325.68C370.704 325.983 370.58 308.535 370.58 308.535C370.58 308.535 370.555 308.56 370.513 308.598Z" fill="black"/>
<path opacity="0.3" d="M351.438 303.239C352.824 303.239 353.946 302.28 353.946 301.096C353.946 299.912 352.824 298.952 351.438 298.952C350.053 298.952 348.93 299.912 348.93 301.096C348.93 302.28 350.053 303.239 351.438 303.239Z" fill="#6C63FF"/>
<path opacity="0.3" d="M352.891 294.16C353.766 294.16 354.475 293.595 354.475 292.899C354.475 292.203 353.766 291.638 352.891 291.638C352.016 291.638 351.307 292.203 351.307 292.899C351.307 293.595 352.016 294.16 352.891 294.16Z" fill="#6C63FF"/>
<path opacity="0.3" d="M349.327 286.594C350.129 286.594 350.779 286.03 350.779 285.333C350.779 284.637 350.129 284.073 349.327 284.073C348.525 284.073 347.875 284.637 347.875 285.333C347.875 286.03 348.525 286.594 349.327 286.594Z" fill="#6C63FF"/>
<path opacity="0.3" d="M348.007 264.401C349.392 264.401 350.515 263.442 350.515 262.258C350.515 261.074 349.392 260.114 348.007 260.114C346.621 260.114 345.499 261.074 345.499 262.258C345.499 263.442 346.621 264.401 348.007 264.401Z" fill="#6C63FF"/>
<path opacity="0.3" d="M355.663 260.366C356.757 260.366 357.644 259.689 357.644 258.853C357.644 258.018 356.757 257.34 355.663 257.34C354.57 257.34 353.683 258.018 353.683 258.853C353.683 259.689 354.57 260.366 355.663 260.366Z" fill="#6C63FF"/>
<path opacity="0.3" d="M350.25 255.323C350.834 255.323 351.306 254.984 351.306 254.566C351.306 254.148 350.834 253.809 350.25 253.809C349.667 253.809 349.194 254.148 349.194 254.566C349.194 254.984 349.667 255.323 350.25 255.323Z" fill="#6C63FF"/>
<path d="M399.24 287.478V285.289H357.189C355.883 285.289 355.883 287.478 357.189 287.478H399.24Z" fill="#161757"/>
<path d="M388.4 270.145V359.362H390.371V270.145C390.371 268.929 388.4 268.929 388.4 270.145Z" fill="#161757"/>
<rect x="384.786" y="281.275" width="9.19729" height="9.85216" rx="2" fill="#F6F6F2"/>
<rect x="353.815" y="281.276" width="7.12537" height="9.9608" rx="2" fill="#F6F6F2"/>
<rect x="343.127" y="281.276" width="4.45335" height="9.9608" rx="2" fill="#F6F6F2"/>
<path d="M329.615 359.363H379.699H397.597V364.836H382.983H322.062C321.898 363.011 323.178 359.363 329.615 359.363Z" fill="#F6F6F2"/>
<ellipse cx="389.221" cy="286.383" rx="2.46356" ry="2.55426" fill="#161757"/>
<path d="M349.691 354.224V348.866L349.691 348.866C350.808 348.254 351.366 347.947 353.042 348.866V354.224H349.691Z" fill="#161757"/>
<path d="M356.633 352.874H346.339V355.843H356.633V352.874Z" fill="#BCBCBC"/>
<path d="M365.49 361.511H337.482C337.482 356.554 349.865 354.224 352.071 354.224C354.278 354.224 365.49 356.739 365.49 361.511Z" fill="#BCBCBC"/>
<path d="M347.681 339.39C347.353 339.024 351.133 334.445 351.133 334.445C354.289 338.108 354.49 339.207 354.435 339.39C354.83 343.785 352.776 344.335 351.133 344.701C349.654 344.396 346.893 343.053 347.681 339.39Z" fill="#FE5353"/>
<path d="M348.225 341.726C347.943 341.531 351.068 338.894 351.068 338.894C353.775 340.85 353.959 341.455 353.915 341.558C354.305 343.989 352.582 344.345 351.202 344.59C349.952 344.457 347.608 343.78 348.225 341.726Z" fill="#FD891F"/>
<path d="M428.646 287.364V357.528" stroke="#B1EAB9" stroke-width="3"/>
<path d="M289.636 357.8L359.701 392.919" stroke="#B1EAB9" stroke-width="3"/>
<path d="M199.879 162.331L278.114 122.991L356.35 162.331V240.669L278.114 280.009L199.879 240.669V162.331Z" fill="#B1EAB9" fill-opacity="0.5" stroke="#B1EAB9" stroke-width="3"/>
<path d="M278.273 131.335L210.188 166.417" stroke="#B1EAB9" stroke-width="3"/>
<path d="M208.176 237.039L278.101 272.38" stroke="#B1EAB9" stroke-width="3"/>
<rect x="233.563" y="166.056" width="94.6988" height="65.8448" rx="5" fill="#4D4D4E"/>
<path d="M239.897 168.858C238.241 168.858 236.897 170.201 236.897 171.858V223.997C236.897 225.654 238.241 226.997 239.897 226.997H322.594C324.251 226.997 325.594 225.654 325.594 223.997V171.858C325.594 170.201 324.251 168.858 322.594 168.858H239.897Z" fill="#56E8B3"/>
<path d="M339.208 229.718H223.96C223.96 231.709 224.551 235.692 230.609 235.692H331.081C336.622 235.692 339.208 234.003 339.208 229.718Z" fill="#333333"/>
<path d="M288.86 229.717H274.292C274.292 230.451 274.367 231.918 275.133 231.918H287.833C288.533 231.918 288.86 231.296 288.86 229.717Z" fill="#818181"/>
<path opacity="0.1" d="M307.652 226.914H236.995V168.982L307.652 226.914Z" fill="black"/>
<path d="M250.76 224.171C255.939 224.171 260.137 219.794 260.137 214.395C260.137 208.996 255.939 204.619 250.76 204.619C245.581 204.619 241.383 208.996 241.383 214.395C241.383 219.794 245.581 224.171 250.76 224.171Z" fill="#F2F2F2"/>
<path d="M252.798 221.492C250.486 221.492 248.227 220.793 246.305 219.484C244.382 218.174 242.884 216.313 242 214.135C241.115 211.957 240.884 209.561 241.335 207.249C241.786 204.937 242.899 202.813 244.533 201.146C246.168 199.479 248.251 198.344 250.518 197.884C252.785 197.424 255.135 197.66 257.271 198.563C259.406 199.465 261.232 200.992 262.516 202.952C263.8 204.912 264.486 207.217 264.486 209.574C264.482 212.734 263.25 215.763 261.059 217.998C258.867 220.232 255.897 221.489 252.798 221.492ZM252.798 197.811C250.517 197.811 248.286 198.501 246.389 199.793C244.492 201.086 243.014 202.923 242.141 205.072C241.268 207.222 241.039 209.587 241.485 211.869C241.93 214.15 243.028 216.246 244.641 217.891C246.255 219.536 248.31 220.657 250.548 221.11C252.785 221.564 255.104 221.331 257.212 220.441C259.32 219.551 261.121 218.043 262.389 216.109C263.656 214.174 264.333 211.9 264.333 209.574C264.33 206.455 263.113 203.465 260.951 201.26C258.788 199.055 255.856 197.815 252.798 197.811V197.811Z" fill="#3F3D56"/>
<path d="M306.5 196.854H297.258V198.997H306.5V196.854Z" fill="#3F3D56"/>
<path d="M317.373 181.855H286.386V182.391H317.373V181.855Z" fill="#3F3D56"/>
<path d="M317.373 184.534H286.386V185.337H317.373V184.534Z" fill="#3F3D56"/>
<path d="M317.373 186.944H286.386V188.016H317.373V186.944Z" fill="#3F3D56"/>
<path d="M317.373 189.891H286.386V190.426H317.373V189.891Z" fill="#3F3D56"/>
<path d="M317.373 192.569H286.386V193.104H317.373V192.569Z" fill="#3F3D56"/>
<path d="M321.061 171.322H317.256V175.34H321.061V171.322Z" fill="#F2F2F2"/>
<path d="M322.964 177.215H318.343V172.394H322.964V177.215ZM318.544 177.005H322.763V172.603H318.544V177.005Z" fill="#3F3D56"/>
<g filter="url(#filter0_i)">
<path d="M25.1702 90.8806L30.2212 94.4424L16.3689 111.124L11.3178 107.563L25.1702 90.8806Z" fill="#C4C4C4"/>
</g>
<g filter="url(#filter1_i)">
<rect width="6.47676" height="20.8403" transform="matrix(-0.635516 0.772088 -0.854756 -0.51903 62.1775 101.241)" fill="#C4C4C4"/>
</g>
<g filter="url(#filter2_i)">
<ellipse rx="10.9816" ry="9.07711" transform="matrix(0.96995 -0.243305 0.299164 0.954202 63.7695 104.485)" fill="#F7F7F7"/>
</g>
<g filter="url(#filter3_i)">
<rect width="6.47676" height="20.8403" transform="matrix(-0.635516 0.772088 -0.854756 -0.51903 62.1775 101.241)" fill="#C4C4C4"/>
</g>
<g filter="url(#filter4_i)">
<ellipse rx="10.9816" ry="9.07711" transform="matrix(0.96995 -0.243305 0.299164 0.954202 63.7695 104.485)" fill="#F7F7F7"/>
</g>
<g filter="url(#filter5_i)">
<ellipse rx="11.0346" ry="9.02407" transform="matrix(0.989603 -0.143823 0.175714 0.984441 12.5056 113.857)" fill="#F7F7F7"/>
</g>
<g filter="url(#filter6_i)">
<ellipse rx="14.5891" ry="12.3208" transform="matrix(0.989781 -0.142593 0.177214 0.984172 33.7204 87.9696)" fill="#F7F7F7"/>
</g>
<g filter="url(#filter7_i)">
<path d="M117.936 323.712L113.618 319.448L130.38 305.059L134.698 309.323L117.936 323.712Z" fill="#C4C4C4"/>
</g>
<g filter="url(#filter8_i)">
<rect width="6.5683" height="20.5675" transform="matrix(-0.728797 0.68473 -0.785209 -0.619231 136.057 348.243)" fill="#C4C4C4"/>
</g>
<g filter="url(#filter9_i)">
<ellipse rx="8.21502" ry="9.99096" transform="matrix(0.283387 0.959006 -0.973171 0.230081 137.761 350.208)" fill="#F7F7F7"/>
</g>
<g filter="url(#filter10_i)">
<ellipse rx="8.93118" ry="10.036" transform="matrix(0.16188 0.986811 -0.99173 0.128341 135.967 306.353)" fill="#F7F7F7"/>
</g>
<g filter="url(#filter11_i)">
<ellipse rx="13.1166" ry="13.7025" transform="matrix(0.160773 0.986991 -0.991614 0.129233 111.449 328.673)" fill="#F7F7F7"/>
</g>
<g filter="url(#filter12_i)">
<rect width="6.42973" height="23.9256" transform="matrix(0.416792 0.909002 -0.953715 0.300712 205.853 85.4575)" fill="#C4C4C4"/>
</g>
<g filter="url(#filter13_i)">
<ellipse rx="11.4719" ry="9.87" transform="matrix(0.989603 -0.143823 0.175714 0.984441 179.024 96.7956)" fill="#F7F7F7"/>
</g>
<g filter="url(#filter14_i)">
<ellipse rx="11.4717" ry="9.86982" transform="matrix(0.989781 -0.142593 0.177214 0.984172 211.223 86.9118)" fill="#F7F7F7"/>
</g>
<defs>
<filter id="filter0_i" x="2.73124" y="90.8806" width="27.49" height="22.8199" filterUnits="userSpaceOnUse" color-interpolation-filters="sRGB">
<feFlood flood-opacity="0" result="BackgroundImageFix"/>
<feBlend mode="normal" in="SourceGraphic" in2="BackgroundImageFix" result="shape"/>
<feColorMatrix in="SourceAlpha" type="matrix" values="0 0 0 0 0 0 0 0 0 0 0 0 0 0 0 0 0 0 127 0" result="hardAlpha"/>
<feOffset dx="-8.58663" dy="2.57599"/>
<feGaussianBlur stdDeviation="4.29332"/>
<feComposite in2="hardAlpha" operator="arithmetic" k2="-1" k3="1"/>
<feColorMatrix type="matrix" values="0 0 0 0 0 0 0 0 0 0 0 0 0 0 0 0 0 0 0.25 0"/>
<feBlend mode="normal" in2="shape" result="effect1_innerShadow"/>
</filter>
<filter id="filter1_i" x="31.6614" y="90.4246" width="30.5161" height="18.3934" filterUnits="userSpaceOnUse" color-interpolation-filters="sRGB">
<feFlood flood-opacity="0" result="BackgroundImageFix"/>
<feBlend mode="normal" in="SourceGraphic" in2="BackgroundImageFix" result="shape"/>
<feColorMatrix in="SourceAlpha" type="matrix" values="0 0 0 0 0 0 0 0 0 0 0 0 0 0 0 0 0 0 127 0" result="hardAlpha"/>
<feOffset dx="-8.58663" dy="2.57599"/>
<feGaussianBlur stdDeviation="4.29332"/>
<feComposite in2="hardAlpha" operator="arithmetic" k2="-1" k3="1"/>
<feColorMatrix type="matrix" values="0 0 0 0 0 0 0 0 0 0 0 0 0 0 0 0 0 0 0.25 0"/>
<feBlend mode="normal" in2="shape" result="effect1_innerShadow"/>
</filter>
<filter id="filter2_i" x="44.188" y="95.4188" width="30.5765" height="20.7091" filterUnits="userSpaceOnUse" color-interpolation-filters="sRGB">
<feFlood flood-opacity="0" result="BackgroundImageFix"/>
<feBlend mode="normal" in="SourceGraphic" in2="BackgroundImageFix" result="shape"/>
<feColorMatrix in="SourceAlpha" type="matrix" values="0 0 0 0 0 0 0 0 0 0 0 0 0 0 0 0 0 0 127 0" result="hardAlpha"/>
<feOffset dx="-8.58663" dy="2.57599"/>
<feGaussianBlur stdDeviation="4.29332"/>
<feComposite in2="hardAlpha" operator="arithmetic" k2="-1" k3="1"/>
<feColorMatrix type="matrix" values="0 0 0 0 0 0 0 0 0 0 0 0 0 0 0 0 0 0 0.25 0"/>
<feBlend mode="normal" in2="shape" result="effect1_innerShadow"/>
</filter>
<filter id="filter3_i" x="31.6614" y="90.4246" width="30.5161" height="18.3934" filterUnits="userSpaceOnUse" color-interpolation-filters="sRGB">
<feFlood flood-opacity="0" result="BackgroundImageFix"/>
<feBlend mode="normal" in="SourceGraphic" in2="BackgroundImageFix" result="shape"/>
<feColorMatrix in="SourceAlpha" type="matrix" values="0 0 0 0 0 0 0 0 0 0 0 0 0 0 0 0 0 0 127 0" result="hardAlpha"/>
<feOffset dx="-8.58663" dy="2.57599"/>
<feGaussianBlur stdDeviation="4.29332"/>
<feComposite in2="hardAlpha" operator="arithmetic" k2="-1" k3="1"/>
<feColorMatrix type="matrix" values="0 0 0 0 0 0 0 0 0 0 0 0 0 0 0 0 0 0 0.25 0"/>
<feBlend mode="normal" in2="shape" result="effect1_innerShadow"/>
</filter>
<filter id="filter4_i" x="44.188" y="95.4188" width="30.5765" height="20.7091" filterUnits="userSpaceOnUse" color-interpolation-filters="sRGB">
<feFlood flood-opacity="0" result="BackgroundImageFix"/>
<feBlend mode="normal" in="SourceGraphic" in2="BackgroundImageFix" result="shape"/>
<feColorMatrix in="SourceAlpha" type="matrix" values="0 0 0 0 0 0 0 0 0 0 0 0 0 0 0 0 0 0 127 0" result="hardAlpha"/>
<feOffset dx="-8.58663" dy="2.57599"/>
<feGaussianBlur stdDeviation="4.29332"/>
<feComposite in2="hardAlpha" operator="arithmetic" k2="-1" k3="1"/>
<feColorMatrix type="matrix" values="0 0 0 0 0 0 0 0 0 0 0 0 0 0 0 0 0 0 0.25 0"/>
<feBlend mode="normal" in2="shape" result="effect1_innerShadow"/>
</filter>
<filter id="filter5_i" x="-7.11691" y="104.831" width="30.6584" height="20.6277" filterUnits="userSpaceOnUse" color-interpolation-filters="sRGB">
<feFlood flood-opacity="0" result="BackgroundImageFix"/>
<feBlend mode="normal" in="SourceGraphic" in2="BackgroundImageFix" result="shape"/>
<feColorMatrix in="SourceAlpha" type="matrix" values="0 0 0 0 0 0 0 0 0 0 0 0 0 0 0 0 0 0 127 0" result="hardAlpha"/>
<feOffset dx="-8.58663" dy="2.57599"/>
<feGaussianBlur stdDeviation="4.29332"/>
<feComposite in2="hardAlpha" operator="arithmetic" k2="-1" k3="1"/>
<feColorMatrix type="matrix" values="0 0 0 0 0 0 0 0 0 0 0 0 0 0 0 0 0 0 0.25 0"/>
<feBlend mode="normal" in2="shape" result="effect1_innerShadow"/>
</filter>
<filter id="filter6_i" x="10.5276" y="75.6647" width="37.799" height="27.1859" filterUnits="userSpaceOnUse" color-interpolation-filters="sRGB">
<feFlood flood-opacity="0" result="BackgroundImageFix"/>
<feBlend mode="normal" in="SourceGraphic" in2="BackgroundImageFix" result="shape"/>
<feColorMatrix in="SourceAlpha" type="matrix" values="0 0 0 0 0 0 0 0 0 0 0 0 0 0 0 0 0 0 127 0" result="hardAlpha"/>
<feOffset dx="-8.58663" dy="2.57599"/>
<feGaussianBlur stdDeviation="4.29332"/>
<feComposite in2="hardAlpha" operator="arithmetic" k2="-1" k3="1"/>
<feColorMatrix type="matrix" values="0 0 0 0 0 0 0 0 0 0 0 0 0 0 0 0 0 0 0.25 0"/>
<feBlend mode="normal" in2="shape" result="effect1_innerShadow"/>
</filter>
<filter id="filter7_i" x="105.031" y="305.059" width="29.6667" height="21.2283" filterUnits="userSpaceOnUse" color-interpolation-filters="sRGB">
<feFlood flood-opacity="0" result="BackgroundImageFix"/>
<feBlend mode="normal" in="SourceGraphic" in2="BackgroundImageFix" result="shape"/>
<feColorMatrix in="SourceAlpha" type="matrix" values="0 0 0 0 0 0 0 0 0 0 0 0 0 0 0 0 0 0 127 0" result="hardAlpha"/>
<feOffset dx="-8.58663" dy="2.57599"/>
<feGaussianBlur stdDeviation="4.29332"/>
<feComposite in2="hardAlpha" operator="arithmetic" k2="-1" k3="1"/>
<feColorMatrix type="matrix" values="0 0 0 0 0 0 0 0 0 0 0 0 0 0 0 0 0 0 0.25 0"/>
<feBlend mode="normal" in2="shape" result="effect1_innerShadow"/>
</filter>
<filter id="filter8_i" x="106.533" y="335.507" width="29.5234" height="19.8095" filterUnits="userSpaceOnUse" color-interpolation-filters="sRGB">
<feFlood flood-opacity="0" result="BackgroundImageFix"/>
<feBlend mode="normal" in="SourceGraphic" in2="BackgroundImageFix" result="shape"/>
<feColorMatrix in="SourceAlpha" type="matrix" values="0 0 0 0 0 0 0 0 0 0 0 0 0 0 0 0 0 0 127 0" result="hardAlpha"/>
<feOffset dx="-8.58663" dy="2.57599"/>
<feGaussianBlur stdDeviation="4.29332"/>
<feComposite in2="hardAlpha" operator="arithmetic" k2="-1" k3="1"/>
<feColorMatrix type="matrix" values="0 0 0 0 0 0 0 0 0 0 0 0 0 0 0 0 0 0 0.25 0"/>
<feBlend mode="normal" in2="shape" result="effect1_innerShadow"/>
</filter>
<filter id="filter9_i" x="119.174" y="341.999" width="28.5867" height="18.9938" filterUnits="userSpaceOnUse" color-interpolation-filters="sRGB">
<feFlood flood-opacity="0" result="BackgroundImageFix"/>
<feBlend mode="normal" in="SourceGraphic" in2="BackgroundImageFix" result="shape"/>
<feColorMatrix in="SourceAlpha" type="matrix" values="0 0 0 0 0 0 0 0 0 0 0 0 0 0 0 0 0 0 127 0" result="hardAlpha"/>
<feOffset dx="-8.58663" dy="2.57599"/>
<feGaussianBlur stdDeviation="4.29332"/>
<feComposite in2="hardAlpha" operator="arithmetic" k2="-1" k3="1"/>
<feColorMatrix type="matrix" values="0 0 0 0 0 0 0 0 0 0 0 0 0 0 0 0 0 0 0.25 0"/>
<feBlend mode="normal" in2="shape" result="effect1_innerShadow"/>
</filter>
<filter id="filter10_i" x="117.322" y="297.445" width="28.7042" height="20.3923" filterUnits="userSpaceOnUse" color-interpolation-filters="sRGB">
<feFlood flood-opacity="0" result="BackgroundImageFix"/>
<feBlend mode="normal" in="SourceGraphic" in2="BackgroundImageFix" result="shape"/>
<feColorMatrix in="SourceAlpha" type="matrix" values="0 0 0 0 0 0 0 0 0 0 0 0 0 0 0 0 0 0 127 0" result="hardAlpha"/>
<feOffset dx="-8.58663" dy="2.57599"/>
<feGaussianBlur stdDeviation="4.29332"/>
<feComposite in2="hardAlpha" operator="arithmetic" k2="-1" k3="1"/>
<feColorMatrix type="matrix" values="0 0 0 0 0 0 0 0 0 0 0 0 0 0 0 0 0 0 0.25 0"/>
<feBlend mode="normal" in2="shape" result="effect1_innerShadow"/>
</filter>
<filter id="filter11_i" x="89.1101" y="315.605" width="36.0911" height="28.7122" filterUnits="userSpaceOnUse" color-interpolation-filters="sRGB">
<feFlood flood-opacity="0" result="BackgroundImageFix"/>
<feBlend mode="normal" in="SourceGraphic" in2="BackgroundImageFix" result="shape"/>
<feColorMatrix in="SourceAlpha" type="matrix" values="0 0 0 0 0 0 0 0 0 0 0 0 0 0 0 0 0 0 127 0" result="hardAlpha"/>
<feOffset dx="-8.58663" dy="2.57599"/>
<feGaussianBlur stdDeviation="4.29332"/>
<feComposite in2="hardAlpha" operator="arithmetic" k2="-1" k3="1"/>
<feColorMatrix type="matrix" values="0 0 0 0 0 0 0 0 0 0 0 0 0 0 0 0 0 0 0.25 0"/>
<feBlend mode="normal" in2="shape" result="effect1_innerShadow"/>
</filter>
<filter id="filter12_i" x="174.448" y="85.4575" width="34.0847" height="15.6153" filterUnits="userSpaceOnUse" color-interpolation-filters="sRGB">
<feFlood flood-opacity="0" result="BackgroundImageFix"/>
<feBlend mode="normal" in="SourceGraphic" in2="BackgroundImageFix" result="shape"/>
<feColorMatrix in="SourceAlpha" type="matrix" values="0 0 0 0 0 0 0 0 0 0 0 0 0 0 0 0 0 0 127 0" result="hardAlpha"/>
<feOffset dx="-8.58663" dy="2.57599"/>
<feGaussianBlur stdDeviation="4.29332"/>
<feComposite in2="hardAlpha" operator="arithmetic" k2="-1" k3="1"/>
<feColorMatrix type="matrix" values="0 0 0 0 0 0 0 0 0 0 0 0 0 0 0 0 0 0 0.25 0"/>
<feBlend mode="normal" in2="shape" result="effect1_innerShadow"/>
</filter>
<filter id="filter13_i" x="158.952" y="86.9386" width="31.5584" height="22.2902" filterUnits="userSpaceOnUse" color-interpolation-filters="sRGB">
<feFlood flood-opacity="0" result="BackgroundImageFix"/>
<feBlend mode="normal" in="SourceGraphic" in2="BackgroundImageFix" result="shape"/>
<feColorMatrix in="SourceAlpha" type="matrix" values="0 0 0 0 0 0 0 0 0 0 0 0 0 0 0 0 0 0 127 0" result="hardAlpha"/>
<feOffset dx="-8.58663" dy="2.57599"/>
<feGaussianBlur stdDeviation="4.29332"/>
<feComposite in2="hardAlpha" operator="arithmetic" k2="-1" k3="1"/>
<feColorMatrix type="matrix" values="0 0 0 0 0 0 0 0 0 0 0 0 0 0 0 0 0 0 0.25 0"/>
<feBlend mode="normal" in2="shape" result="effect1_innerShadow"/>
</filter>
<filter id="filter14_i" x="191.146" y="77.0598" width="31.5667" height="22.2799" filterUnits="userSpaceOnUse" color-interpolation-filters="sRGB">
<feFlood flood-opacity="0" result="BackgroundImageFix"/>
<feBlend mode="normal" in="SourceGraphic" in2="BackgroundImageFix" result="shape"/>
<feColorMatrix in="SourceAlpha" type="matrix" values="0 0 0 0 0 0 0 0 0 0 0 0 0 0 0 0 0 0 127 0" result="hardAlpha"/>
<feOffset dx="-8.58663" dy="2.57599"/>
<feGaussianBlur stdDeviation="4.29332"/>
<feComposite in2="hardAlpha" operator="arithmetic" k2="-1" k3="1"/>
<feColorMatrix type="matrix" values="0 0 0 0 0 0 0 0 0 0 0 0 0 0 0 0 0 0 0.25 0"/>
<feBlend mode="normal" in2="shape" result="effect1_innerShadow"/>
</filter>
</defs>
</svg>
