<svg width="590" height="401" viewBox="0 0 590 401" fill="none" xmlns="http://www.w3.org/2000/svg">
<path d="M400.605 161.575L487.699 122.355L574.794 161.575V239.425L487.699 278.645L400.605 239.425V161.575Z" fill="#B1EAB9" fill-opacity="0.5" stroke="#B1EAB9" stroke-width="3"/>
<path d="M475.961 220.118V217.99H513.934C515.918 217.99 519.602 217.99 519.602 220.118H475.961Z" fill="#484848"/>
<path d="M475.961 219.871V222.38H516.485C517.524 222.38 519.602 221.878 519.602 219.871H475.961Z" fill="black"/>
<path d="M481.12 187.691V181.691C477.15 181.078 467.161 180.665 458.963 184.691C457.162 185.143 451.761 189.337 451.761 196.596C452.223 199.499 454.31 206.604 458.963 211.791C459.378 212.501 461.649 214.985 467.41 219.244L474.888 213.921C472.811 212.824 468.31 209.856 464.64 204.726C462.886 202.274 460.403 195.822 463.394 191.563C465.471 188.175 469.598 187.691 481.12 187.691Z" fill="#F6F6F2"/>
<path d="M491.83 232.414V228.338H503.732V232.414H491.83Z" fill="black"/>
<path d="M501.352 170.013H485.483V196.353H501.352V170.013Z" fill="#F6F6F2"/>
<path d="M498.575 159.035H488.657V162.693V170.01H498.575V159.035Z" fill="#333333"/>
<path d="M498.575 158.724H488.657V160.919H498.575V158.724Z" fill="#F6F6F2"/>
<path d="M520.801 233.702C524.104 233.456 530.711 234.459 530.711 240.438H528.368V241.822H514.314V240.438H463.323V241.822H449.81V240.438H446.206C446.206 235.049 452.332 233.702 455.395 233.702H520.801Z" fill="#333333"/>
<path d="M528.727 240.253H514.048V241.821H528.727V241.037V240.253Z" fill="black"/>
<path d="M463.266 240.253H448.586V241.821H463.266V241.037V240.253Z" fill="black"/>
<path d="M489.847 231.16V230.219H504.923V231.16H489.847Z" fill="#333333"/>
<path d="M489.847 233.668V232.414H504.923V233.668H489.847Z" fill="#333333"/>
<path d="M506.51 228.651H488.657C488.657 227.342 488.657 226.143 490.516 226.143H497.769H504.65C506.51 226.143 506.51 227.342 506.51 228.651Z" fill="#333333"/>
<path d="M475.392 238.438L454.357 233.943L460.768 219.923C463.248 212.615 471.014 211.312 473.767 211.9C476.521 212.489 481.56 216.434 479.05 223.831L475.392 238.438Z" fill="#333333"/>
<ellipse rx="5.23388" ry="3.45485" transform="matrix(1 0 0.0563854 0.998409 470.509 217.676)" fill="#484848"/>
<ellipse rx="3.22626" ry="2.0415" transform="matrix(1 0 0.0563854 0.998409 470.566 217.519)" fill="#333333"/>
<path d="M529.917 237.432L446.999 237.275C447.571 236.073 450.256 233.669 456.427 233.669H522.632C524.489 233.773 528.546 234.672 529.917 237.432Z" fill="#484848"/>
<path d="M486.222 197.623L503.282 191.867L504.911 195.454L503.783 195.834L508.686 201.98L504.875 204.329L497.72 197.88L495.464 198.641L494.159 207.945L489.511 208.449L489.12 200.782L487.851 201.21L486.222 197.623Z" fill="#333333"/>
<path d="M490.641 184.437C490.641 186.861 488.065 188.827 484.888 188.827C481.711 188.827 479.135 186.861 479.135 184.437C479.135 182.012 481.711 180.047 484.888 180.047C488.065 180.047 490.641 182.012 490.641 184.437Z" fill="#333333"/>
<path d="M490.641 184.437C490.641 186.861 488.065 188.827 484.888 188.827C481.711 188.827 479.135 186.861 479.135 184.437C479.135 182.012 481.711 180.047 484.888 180.047C488.065 180.047 490.641 182.012 490.641 184.437Z" fill="#333333"/>
<path d="M504.543 194.33L487.338 200.134L487.883 201.335L505.088 195.531L504.543 194.33Z" fill="#F6F6F2"/>
<path d="M410.1 165.848V235.664" stroke="#B1EAB9" stroke-width="3"/>
<path d="M564.083 166.084V235.9" stroke="#B1EAB9" stroke-width="3"/>
<path d="M311.342 40.8645L398.437 1.64507L485.531 40.8645V118.715L398.437 157.935L311.342 118.715V40.8645Z" fill="#B1EAB9" fill-opacity="0.5" stroke="#B1EAB9" stroke-width="3"/>
<path d="M475.252 45.3735V115.19" stroke="#B1EAB9" stroke-width="3"/>
<path d="M399.144 10.6292L322.936 44.7511" stroke="#B1EAB9" stroke-width="3"/>
<path d="M44.2586 161.679L131.353 122.46L218.448 161.679V239.53L131.353 278.749L44.2586 239.53V161.679Z" fill="#B1EAB9" fill-opacity="0.5" stroke="#B1EAB9" stroke-width="3"/>
<path d="M132.013 130.478L55.8714 164.694" stroke="#B1EAB9" stroke-width="3"/>
<path d="M53.636 235.174L131.476 270.132" stroke="#B1EAB9" stroke-width="3"/>
<path d="M311.342 282.285L398.437 243.065L485.531 282.285V360.136L398.437 399.355L311.342 360.136V282.285Z" fill="#B1EAB9" fill-opacity="0.5" stroke="#B1EAB9" stroke-width="3"/>
<path opacity="0.9" d="M400.272 291.569V272.535H403.777V266.853H378.661V272.535H382.166V291.569C377.325 292.928 373.158 295.344 370.217 298.495C367.276 301.646 365.701 305.384 365.699 309.213C365.699 319.635 377.126 328.083 391.221 328.083C405.316 328.083 416.742 319.635 416.742 309.213C416.741 305.384 415.165 301.646 412.223 298.494C409.281 295.343 405.113 292.928 400.272 291.569V291.569Z" fill="#92B8F0"/>
<path opacity="0.1" d="M400.315 272.374H382.127V272.876H400.315V272.374Z" fill="black"/>
<path d="M376.846 308.604C376.846 308.604 392.289 308.403 400.01 305.534C407.731 302.666 412.143 305.227 411.728 306.967C411.314 308.707 409.11 312.082 400.286 312.497C391.462 312.911 376.846 308.604 376.846 308.604Z" fill="#6C63FF"/>
<path opacity="0.1" d="M376.846 308.604C376.846 308.604 392.289 308.403 400.01 305.534C407.731 302.666 412.143 305.227 411.728 306.967C411.314 308.707 409.11 312.082 400.286 312.497C391.462 312.911 376.846 308.604 376.846 308.604Z" fill="black"/>
<path d="M370.422 306.872C370.422 306.872 368.778 323.759 390.333 324.064C411.887 324.369 411.755 307.072 411.755 307.072C411.755 307.072 403.795 313.48 384.978 308.191C384.978 308.195 375.228 306.262 370.422 306.872Z" fill="#6C63FF"/>
<path opacity="0.1" d="M411.681 307.066C411.251 310.972 408.459 323.198 390.338 322.94C372.574 322.69 370.562 311.139 370.405 307.076C370.306 309.257 370.394 323.78 390.334 324.064C411.893 324.365 411.755 307.004 411.755 307.004C411.755 307.004 411.728 307.029 411.681 307.066Z" fill="black"/>
<path opacity="0.3" d="M390.487 301.734C392.026 301.734 393.274 300.779 393.274 299.601C393.274 298.423 392.026 297.468 390.487 297.468C388.948 297.468 387.7 298.423 387.7 299.601C387.7 300.779 388.948 301.734 390.487 301.734Z" fill="#6C63FF"/>
<path opacity="0.3" d="M392.101 292.7C393.073 292.7 393.861 292.138 393.861 291.445C393.861 290.752 393.073 290.191 392.101 290.191C391.129 290.191 390.341 290.752 390.341 291.445C390.341 292.138 391.129 292.7 392.101 292.7Z" fill="#6C63FF"/>
<path opacity="0.3" d="M388.141 285.172C389.032 285.172 389.754 284.61 389.754 283.917C389.754 283.224 389.032 282.663 388.141 282.663C387.25 282.663 386.527 283.224 386.527 283.917C386.527 284.61 387.25 285.172 388.141 285.172Z" fill="#6C63FF"/>
<path opacity="0.3" d="M386.674 263.089C388.213 263.089 389.461 262.134 389.461 260.956C389.461 259.778 388.213 258.823 386.674 258.823C385.135 258.823 383.887 259.778 383.887 260.956C383.887 262.134 385.135 263.089 386.674 263.089Z" fill="#6C63FF"/>
<path opacity="0.3" d="M395.182 259.074C396.397 259.074 397.382 258.4 397.382 257.569C397.382 256.737 396.397 256.063 395.182 256.063C393.967 256.063 392.982 256.737 392.982 257.569C392.982 258.4 393.967 259.074 395.182 259.074Z" fill="#6C63FF"/>
<path opacity="0.3" d="M389.167 254.056C389.815 254.056 390.341 253.719 390.341 253.303C390.341 252.887 389.815 252.55 389.167 252.55C388.519 252.55 387.994 252.887 387.994 253.303C387.994 253.719 388.519 254.056 389.167 254.056Z" fill="#6C63FF"/>
<path d="M443.6 286.052V283.873H396.877C395.425 283.873 395.425 286.052 396.877 286.052H443.6Z" fill="#161757"/>
<path d="M431.556 268.804V357.579H433.745V268.804C433.745 267.595 431.556 267.595 431.556 268.804Z" fill="#161757"/>
<rect x="427.541" y="279.879" width="10.2192" height="9.80327" rx="2" fill="#F6F6F2"/>
<rect x="393.128" y="279.88" width="7.91708" height="9.91136" rx="2" fill="#F6F6F2"/>
<rect x="381.252" y="279.88" width="4.94817" height="9.91136" rx="2" fill="#F6F6F2"/>
<path d="M366.239 357.579H421.888H441.775V363.025H425.537H357.846C357.664 361.21 359.087 357.579 366.239 357.579Z" fill="#F6F6F2"/>
<ellipse cx="432.468" cy="284.962" rx="2.73729" ry="2.54159" fill="#161757"/>
<path d="M388.545 352.466V347.135L388.545 347.135C389.786 346.525 390.407 346.221 392.269 347.135V352.466H388.545Z" fill="#161757"/>
<path d="M396.259 351.123H384.822V354.077H396.259V351.123Z" fill="#BCBCBC"/>
<path d="M406.1 359.717H374.98C374.98 354.785 388.739 352.466 391.191 352.466C393.642 352.466 406.1 354.969 406.1 359.717Z" fill="#BCBCBC"/>
<path d="M386.313 337.706C385.947 337.341 390.148 332.786 390.148 332.786C393.654 336.43 393.878 337.524 393.817 337.706C394.255 342.079 391.974 342.626 390.148 342.991C388.504 342.687 385.436 341.351 386.313 337.706Z" fill="#FE5353"/>
<path d="M386.916 340.03C386.603 339.836 390.076 337.212 390.076 337.212C393.083 339.158 393.288 339.76 393.239 339.863C393.672 342.282 391.758 342.637 390.225 342.88C388.835 342.748 386.231 342.074 386.916 340.03Z" fill="#FD891F"/>
<path d="M476.273 285.938V355.754" stroke="#B1EAB9" stroke-width="3"/>
<path d="M321.818 356.024L399.667 390.969" stroke="#B1EAB9" stroke-width="3"/>
<path d="M221.921 161.575L309.016 122.355L396.111 161.575V239.425L309.016 278.645L221.921 239.425V161.575Z" fill="#B1EAB9" fill-opacity="0.5" stroke="#B1EAB9" stroke-width="3"/>
<path d="M309.193 130.683L233.542 165.591" stroke="#B1EAB9" stroke-width="3"/>
<path d="M231.307 235.863L309.001 271.028" stroke="#B1EAB9" stroke-width="3"/>
<rect x="259.514" y="165.232" width="105.221" height="65.518" rx="5" fill="#4D4D4E"/>
<path d="M266.219 168.02C264.562 168.02 263.219 169.363 263.219 171.02V222.871C263.219 224.527 264.562 225.871 266.219 225.871H358.771C360.428 225.871 361.771 224.527 361.771 222.871V171.02C361.771 169.363 360.428 168.02 358.771 168.02H266.219Z" fill="#56E8B3"/>
<path d="M376.898 228.577H248.845C248.845 230.559 249.502 234.522 256.233 234.522H367.868C374.025 234.522 376.898 232.841 376.898 228.577Z" fill="#333333"/>
<path d="M320.956 228.577H304.769C304.769 229.307 304.852 230.767 305.703 230.767H319.814C320.593 230.767 320.956 230.148 320.956 228.577Z" fill="#818181"/>
<path opacity="0.1" d="M341.836 225.788H263.327V168.143L341.836 225.788Z" fill="black"/>
<path d="M278.622 223.058C284.377 223.058 289.042 218.703 289.042 213.331C289.042 207.958 284.377 203.603 278.622 203.603C272.868 203.603 268.203 207.958 268.203 213.331C268.203 218.703 272.868 223.058 278.622 223.058Z" fill="#F2F2F2"/>
<path d="M280.887 220.393C278.318 220.393 275.807 219.698 273.672 218.395C271.536 217.091 269.872 215.239 268.889 213.072C267.906 210.905 267.649 208.521 268.15 206.22C268.651 203.92 269.888 201.807 271.704 200.148C273.52 198.489 275.834 197.36 278.353 196.902C280.872 196.445 283.483 196.68 285.856 197.577C288.229 198.475 290.258 199.995 291.684 201.945C293.111 203.895 293.873 206.188 293.873 208.534C293.869 211.678 292.5 214.692 290.065 216.916C287.631 219.139 284.33 220.39 280.887 220.393ZM280.887 196.829C278.352 196.829 275.874 197.516 273.766 198.802C271.658 200.088 270.016 201.916 269.046 204.055C268.075 206.193 267.822 208.547 268.316 210.817C268.811 213.088 270.031 215.173 271.824 216.81C273.616 218.447 275.9 219.562 278.386 220.013C280.872 220.465 283.449 220.233 285.791 219.347C288.133 218.461 290.135 216.961 291.543 215.036C292.952 213.112 293.703 210.849 293.703 208.534C293.699 205.431 292.348 202.456 289.945 200.261C287.542 198.067 284.285 196.833 280.887 196.829V196.829Z" fill="#3F3D56"/>
<path d="M340.555 195.877H330.287V198.009H340.555V195.877Z" fill="#3F3D56"/>
<path d="M352.636 180.953H318.207V181.486H352.636V180.953Z" fill="#3F3D56"/>
<path d="M352.636 183.618H318.207V184.417H352.636V183.618Z" fill="#3F3D56"/>
<path d="M352.636 186.016H318.207V187.082H352.636V186.016Z" fill="#3F3D56"/>
<path d="M352.636 188.948H318.207V189.481H352.636V188.948Z" fill="#3F3D56"/>
<path d="M352.636 191.613H318.207V192.146H352.636V191.613Z" fill="#3F3D56"/>
<path d="M356.735 170.472H352.506V174.469H356.735V170.472Z" fill="#F2F2F2"/>
<path d="M358.849 176.335H353.715V171.538H358.849V176.335ZM353.938 176.126H358.626V171.747H353.938V176.126Z" fill="#3F3D56"/>
<g filter="url(#filter0_i)">
<path d="M27.9668 90.4296L33.5791 93.9736L18.1876 110.573L12.5753 107.029L27.9668 90.4296Z" fill="#C4C4C4"/>
</g>
<g filter="url(#filter1_i)">
<rect width="6.75833" height="22.5298" transform="matrix(-0.676711 0.736249 -0.878509 -0.477725 69.0862 100.739)" fill="#C4C4C4"/>
</g>
<g filter="url(#filter2_i)">
<ellipse rx="12.13" ry="9.13131" transform="matrix(0.975685 -0.219176 0.330431 0.94383 70.855 103.967)" fill="#F7F7F7"/>
</g>
<g filter="url(#filter3_i)">
<rect width="6.75833" height="22.5298" transform="matrix(-0.676711 0.736249 -0.878509 -0.477725 69.0862 100.739)" fill="#C4C4C4"/>
</g>
<g filter="url(#filter4_i)">
<ellipse rx="12.13" ry="9.13131" transform="matrix(0.975685 -0.219176 0.330431 0.94383 70.855 103.967)" fill="#F7F7F7"/>
</g>
<g filter="url(#filter5_i)">
<ellipse rx="12.2356" ry="9.01345" transform="matrix(0.991636 -0.129063 0.195468 0.98071 13.8951 113.292)" fill="#F7F7F7"/>
</g>
<g filter="url(#filter6_i)">
<ellipse rx="16.1775" ry="12.3071" transform="matrix(0.99178 -0.127955 0.197123 0.980379 37.4671 87.533)" fill="#F7F7F7"/>
</g>
<g filter="url(#filter7_i)">
<path d="M131.04 322.105L126.242 317.862L144.866 303.545L149.664 307.788L131.04 322.105Z" fill="#C4C4C4"/>
</g>
<g filter="url(#filter8_i)">
<rect width="6.95107" height="21.9681" transform="matrix(-0.765183 0.643813 -0.816832 -0.576875 151.174 346.515)" fill="#C4C4C4"/>
</g>
<g filter="url(#filter9_i)">
<ellipse rx="8.25489" ry="11.0427" transform="matrix(0.313353 0.949637 -0.978313 0.207134 153.068 348.47)" fill="#F7F7F7"/>
</g>
<g filter="url(#filter10_i)">
<ellipse rx="8.91545" ry="11.1329" transform="matrix(0.181055 0.983473 -0.993417 0.114555 151.082 304.825)" fill="#F7F7F7"/>
</g>
<g filter="url(#filter11_i)">
<ellipse rx="13.0931" ry="15.1998" transform="matrix(0.178957 0.983857 -0.993258 0.115924 123.832 327.042)" fill="#F7F7F7"/>
</g>
<g filter="url(#filter12_i)">
<rect width="6.53359" height="26.345" transform="matrix(0.455741 0.890113 -0.96237 0.271741 228.725 85.0334)" fill="#C4C4C4"/>
</g>
<g filter="url(#filter13_i)">
<ellipse rx="12.7204" ry="9.85838" transform="matrix(0.991636 -0.129063 0.195468 0.98071 198.916 96.3153)" fill="#F7F7F7"/>
</g>
<g filter="url(#filter14_i)">
<ellipse rx="12.7207" ry="9.85884" transform="matrix(0.99178 -0.127955 0.197123 0.980379 234.692 86.4804)" fill="#F7F7F7"/>
</g>
<defs>
<filter id="filter0_i" x="3.98856" y="90.4296" width="29.5904" height="22.7194" filterUnits="userSpaceOnUse" color-interpolation-filters="sRGB">
<feFlood flood-opacity="0" result="BackgroundImageFix"/>
<feBlend mode="normal" in="SourceGraphic" in2="BackgroundImageFix" result="shape"/>
<feColorMatrix in="SourceAlpha" type="matrix" values="0 0 0 0 0 0 0 0 0 0 0 0 0 0 0 0 0 0 127 0" result="hardAlpha"/>
<feOffset dx="-8.58663" dy="2.57599"/>
<feGaussianBlur stdDeviation="4.29332"/>
<feComposite in2="hardAlpha" operator="arithmetic" k2="-1" k3="1"/>
<feColorMatrix type="matrix" values="0 0 0 0 0 0 0 0 0 0 0 0 0 0 0 0 0 0 0.25 0"/>
<feBlend mode="normal" in2="shape" result="effect1_innerShadow"/>
</filter>
<filter id="filter1_i" x="36.1336" y="89.9758" width="32.9527" height="18.3149" filterUnits="userSpaceOnUse" color-interpolation-filters="sRGB">
<feFlood flood-opacity="0" result="BackgroundImageFix"/>
<feBlend mode="normal" in="SourceGraphic" in2="BackgroundImageFix" result="shape"/>
<feColorMatrix in="SourceAlpha" type="matrix" values="0 0 0 0 0 0 0 0 0 0 0 0 0 0 0 0 0 0 127 0" result="hardAlpha"/>
<feOffset dx="-8.58663" dy="2.57599"/>
<feGaussianBlur stdDeviation="4.29332"/>
<feComposite in2="hardAlpha" operator="arithmetic" k2="-1" k3="1"/>
<feColorMatrix type="matrix" values="0 0 0 0 0 0 0 0 0 0 0 0 0 0 0 0 0 0 0.25 0"/>
<feBlend mode="normal" in2="shape" result="effect1_innerShadow"/>
</filter>
<filter id="filter2_i" x="50.0518" y="94.9453" width="33.0198" height="20.6191" filterUnits="userSpaceOnUse" color-interpolation-filters="sRGB">
<feFlood flood-opacity="0" result="BackgroundImageFix"/>
<feBlend mode="normal" in="SourceGraphic" in2="BackgroundImageFix" result="shape"/>
<feColorMatrix in="SourceAlpha" type="matrix" values="0 0 0 0 0 0 0 0 0 0 0 0 0 0 0 0 0 0 127 0" result="hardAlpha"/>
<feOffset dx="-8.58663" dy="2.57599"/>
<feGaussianBlur stdDeviation="4.29332"/>
<feComposite in2="hardAlpha" operator="arithmetic" k2="-1" k3="1"/>
<feColorMatrix type="matrix" values="0 0 0 0 0 0 0 0 0 0 0 0 0 0 0 0 0 0 0.25 0"/>
<feBlend mode="normal" in2="shape" result="effect1_innerShadow"/>
</filter>
<filter id="filter3_i" x="36.1336" y="89.9758" width="32.9527" height="18.3149" filterUnits="userSpaceOnUse" color-interpolation-filters="sRGB">
<feFlood flood-opacity="0" result="BackgroundImageFix"/>
<feBlend mode="normal" in="SourceGraphic" in2="BackgroundImageFix" result="shape"/>
<feColorMatrix in="SourceAlpha" type="matrix" values="0 0 0 0 0 0 0 0 0 0 0 0 0 0 0 0 0 0 127 0" result="hardAlpha"/>
<feOffset dx="-8.58663" dy="2.57599"/>
<feGaussianBlur stdDeviation="4.29332"/>
<feComposite in2="hardAlpha" operator="arithmetic" k2="-1" k3="1"/>
<feColorMatrix type="matrix" values="0 0 0 0 0 0 0 0 0 0 0 0 0 0 0 0 0 0 0.25 0"/>
<feBlend mode="normal" in2="shape" result="effect1_innerShadow"/>
</filter>
<filter id="filter4_i" x="50.0518" y="94.9453" width="33.0198" height="20.6191" filterUnits="userSpaceOnUse" color-interpolation-filters="sRGB">
<feFlood flood-opacity="0" result="BackgroundImageFix"/>
<feBlend mode="normal" in="SourceGraphic" in2="BackgroundImageFix" result="shape"/>
<feColorMatrix in="SourceAlpha" type="matrix" values="0 0 0 0 0 0 0 0 0 0 0 0 0 0 0 0 0 0 127 0" result="hardAlpha"/>
<feOffset dx="-8.58663" dy="2.57599"/>
<feGaussianBlur stdDeviation="4.29332"/>
<feComposite in2="hardAlpha" operator="arithmetic" k2="-1" k3="1"/>
<feColorMatrix type="matrix" values="0 0 0 0 0 0 0 0 0 0 0 0 0 0 0 0 0 0 0.25 0"/>
<feBlend mode="normal" in2="shape" result="effect1_innerShadow"/>
</filter>
<filter id="filter5_i" x="-6.95358" y="104.311" width="33.1108" height="20.5381" filterUnits="userSpaceOnUse" color-interpolation-filters="sRGB">
<feFlood flood-opacity="0" result="BackgroundImageFix"/>
<feBlend mode="normal" in="SourceGraphic" in2="BackgroundImageFix" result="shape"/>
<feColorMatrix in="SourceAlpha" type="matrix" values="0 0 0 0 0 0 0 0 0 0 0 0 0 0 0 0 0 0 127 0" result="hardAlpha"/>
<feOffset dx="-8.58663" dy="2.57599"/>
<feGaussianBlur stdDeviation="4.29332"/>
<feComposite in2="hardAlpha" operator="arithmetic" k2="-1" k3="1"/>
<feColorMatrix type="matrix" values="0 0 0 0 0 0 0 0 0 0 0 0 0 0 0 0 0 0 0.25 0"/>
<feBlend mode="normal" in2="shape" result="effect1_innerShadow"/>
</filter>
<filter id="filter6_i" x="12.6514" y="75.2891" width="41.0449" height="27.0637" filterUnits="userSpaceOnUse" color-interpolation-filters="sRGB">
<feFlood flood-opacity="0" result="BackgroundImageFix"/>
<feBlend mode="normal" in="SourceGraphic" in2="BackgroundImageFix" result="shape"/>
<feColorMatrix in="SourceAlpha" type="matrix" values="0 0 0 0 0 0 0 0 0 0 0 0 0 0 0 0 0 0 127 0" result="hardAlpha"/>
<feOffset dx="-8.58663" dy="2.57599"/>
<feGaussianBlur stdDeviation="4.29332"/>
<feComposite in2="hardAlpha" operator="arithmetic" k2="-1" k3="1"/>
<feColorMatrix type="matrix" values="0 0 0 0 0 0 0 0 0 0 0 0 0 0 0 0 0 0 0.25 0"/>
<feBlend mode="normal" in2="shape" result="effect1_innerShadow"/>
</filter>
<filter id="filter7_i" x="117.656" y="303.545" width="32.0089" height="21.1357" filterUnits="userSpaceOnUse" color-interpolation-filters="sRGB">
<feFlood flood-opacity="0" result="BackgroundImageFix"/>
<feBlend mode="normal" in="SourceGraphic" in2="BackgroundImageFix" result="shape"/>
<feColorMatrix in="SourceAlpha" type="matrix" values="0 0 0 0 0 0 0 0 0 0 0 0 0 0 0 0 0 0 127 0" result="hardAlpha"/>
<feOffset dx="-8.58663" dy="2.57599"/>
<feGaussianBlur stdDeviation="4.29332"/>
<feComposite in2="hardAlpha" operator="arithmetic" k2="-1" k3="1"/>
<feColorMatrix type="matrix" values="0 0 0 0 0 0 0 0 0 0 0 0 0 0 0 0 0 0 0.25 0"/>
<feBlend mode="normal" in2="shape" result="effect1_innerShadow"/>
</filter>
<filter id="filter8_i" x="119.324" y="333.842" width="31.8497" height="19.724" filterUnits="userSpaceOnUse" color-interpolation-filters="sRGB">
<feFlood flood-opacity="0" result="BackgroundImageFix"/>
<feBlend mode="normal" in="SourceGraphic" in2="BackgroundImageFix" result="shape"/>
<feColorMatrix in="SourceAlpha" type="matrix" values="0 0 0 0 0 0 0 0 0 0 0 0 0 0 0 0 0 0 127 0" result="hardAlpha"/>
<feOffset dx="-8.58663" dy="2.57599"/>
<feGaussianBlur stdDeviation="4.29332"/>
<feComposite in2="hardAlpha" operator="arithmetic" k2="-1" k3="1"/>
<feColorMatrix type="matrix" values="0 0 0 0 0 0 0 0 0 0 0 0 0 0 0 0 0 0 0.25 0"/>
<feBlend mode="normal" in2="shape" result="effect1_innerShadow"/>
</filter>
<filter id="filter9_i" x="133.37" y="340.302" width="30.8089" height="18.9123" filterUnits="userSpaceOnUse" color-interpolation-filters="sRGB">
<feFlood flood-opacity="0" result="BackgroundImageFix"/>
<feBlend mode="normal" in="SourceGraphic" in2="BackgroundImageFix" result="shape"/>
<feColorMatrix in="SourceAlpha" type="matrix" values="0 0 0 0 0 0 0 0 0 0 0 0 0 0 0 0 0 0 127 0" result="hardAlpha"/>
<feOffset dx="-8.58663" dy="2.57599"/>
<feGaussianBlur stdDeviation="4.29332"/>
<feComposite in2="hardAlpha" operator="arithmetic" k2="-1" k3="1"/>
<feColorMatrix type="matrix" values="0 0 0 0 0 0 0 0 0 0 0 0 0 0 0 0 0 0 0.25 0"/>
<feBlend mode="normal" in2="shape" result="effect1_innerShadow"/>
</filter>
<filter id="filter10_i" x="131.317" y="295.963" width="30.9431" height="20.299" filterUnits="userSpaceOnUse" color-interpolation-filters="sRGB">
<feFlood flood-opacity="0" result="BackgroundImageFix"/>
<feBlend mode="normal" in="SourceGraphic" in2="BackgroundImageFix" result="shape"/>
<feColorMatrix in="SourceAlpha" type="matrix" values="0 0 0 0 0 0 0 0 0 0 0 0 0 0 0 0 0 0 127 0" result="hardAlpha"/>
<feOffset dx="-8.58663" dy="2.57599"/>
<feGaussianBlur stdDeviation="4.29332"/>
<feComposite in2="hardAlpha" operator="arithmetic" k2="-1" k3="1"/>
<feColorMatrix type="matrix" values="0 0 0 0 0 0 0 0 0 0 0 0 0 0 0 0 0 0 0.25 0"/>
<feBlend mode="normal" in2="shape" result="effect1_innerShadow"/>
</filter>
<filter id="filter11_i" x="99.9651" y="314.038" width="39.1472" height="28.5825" filterUnits="userSpaceOnUse" color-interpolation-filters="sRGB">
<feFlood flood-opacity="0" result="BackgroundImageFix"/>
<feBlend mode="normal" in="SourceGraphic" in2="BackgroundImageFix" result="shape"/>
<feColorMatrix in="SourceAlpha" type="matrix" values="0 0 0 0 0 0 0 0 0 0 0 0 0 0 0 0 0 0 127 0" result="hardAlpha"/>
<feOffset dx="-8.58663" dy="2.57599"/>
<feGaussianBlur stdDeviation="4.29332"/>
<feComposite in2="hardAlpha" operator="arithmetic" k2="-1" k3="1"/>
<feColorMatrix type="matrix" values="0 0 0 0 0 0 0 0 0 0 0 0 0 0 0 0 0 0 0.25 0"/>
<feBlend mode="normal" in2="shape" result="effect1_innerShadow"/>
</filter>
<filter id="filter12_i" x="194.785" y="85.0334" width="36.9179" height="15.5506" filterUnits="userSpaceOnUse" color-interpolation-filters="sRGB">
<feFlood flood-opacity="0" result="BackgroundImageFix"/>
<feBlend mode="normal" in="SourceGraphic" in2="BackgroundImageFix" result="shape"/>
<feColorMatrix in="SourceAlpha" type="matrix" values="0 0 0 0 0 0 0 0 0 0 0 0 0 0 0 0 0 0 127 0" result="hardAlpha"/>
<feOffset dx="-8.58663" dy="2.57599"/>
<feGaussianBlur stdDeviation="4.29332"/>
<feComposite in2="hardAlpha" operator="arithmetic" k2="-1" k3="1"/>
<feColorMatrix type="matrix" values="0 0 0 0 0 0 0 0 0 0 0 0 0 0 0 0 0 0 0.25 0"/>
<feBlend mode="normal" in2="shape" result="effect1_innerShadow"/>
</filter>
<filter id="filter13_i" x="177.567" y="86.5071" width="34.1108" height="22.1923" filterUnits="userSpaceOnUse" color-interpolation-filters="sRGB">
<feFlood flood-opacity="0" result="BackgroundImageFix"/>
<feBlend mode="normal" in="SourceGraphic" in2="BackgroundImageFix" result="shape"/>
<feColorMatrix in="SourceAlpha" type="matrix" values="0 0 0 0 0 0 0 0 0 0 0 0 0 0 0 0 0 0 127 0" result="hardAlpha"/>
<feOffset dx="-8.58663" dy="2.57599"/>
<feGaussianBlur stdDeviation="4.29332"/>
<feComposite in2="hardAlpha" operator="arithmetic" k2="-1" k3="1"/>
<feColorMatrix type="matrix" values="0 0 0 0 0 0 0 0 0 0 0 0 0 0 0 0 0 0 0.25 0"/>
<feBlend mode="normal" in2="shape" result="effect1_innerShadow"/>
</filter>
<filter id="filter14_i" x="213.339" y="76.6774" width="34.1201" height="22.1821" filterUnits="userSpaceOnUse" color-interpolation-filters="sRGB">
<feFlood flood-opacity="0" result="BackgroundImageFix"/>
<feBlend mode="normal" in="SourceGraphic" in2="BackgroundImageFix" result="shape"/>
<feColorMatrix in="SourceAlpha" type="matrix" values="0 0 0 0 0 0 0 0 0 0 0 0 0 0 0 0 0 0 127 0" result="hardAlpha"/>
<feOffset dx="-8.58663" dy="2.57599"/>
<feGaussianBlur stdDeviation="4.29332"/>
<feComposite in2="hardAlpha" operator="arithmetic" k2="-1" k3="1"/>
<feColorMatrix type="matrix" values="0 0 0 0 0 0 0 0 0 0 0 0 0 0 0 0 0 0 0.25 0"/>
<feBlend mode="normal" in2="shape" result="effect1_innerShadow"/>
</filter>
</defs>
</svg>
